<svg height="682pt" viewBox="-63 -21 682 682.66669" width="682pt" xmlns="http://www.w3.org/2000/svg"><path d="m535.609375 0h-519.257813c-10.363281 0-18.769531 8.402344-18.769531 18.769531v602.460938c0 10.367187 8.40625 18.769531 18.769531 18.769531h519.257813c10.363281 0 18.765625-8.402344 18.765625-18.769531v-602.460938c0-10.367187-8.402344-18.769531-18.765625-18.769531zm-500.488281 37.539062h193.3125v141.488282c0 33.582031-27.316406 60.894531-60.894532 60.894531h-132.417968zm481.71875 564.921876h-481.71875v-325.003907h132.417968c54.277344 0 98.429688-44.15625 98.429688-98.429687v-141.488282h250.871094zm0 0"/><path d="m209.664062 207.960938v-14.671876c0-26.574218-13.507812-50.050781-34.019531-63.933593 4.625-7.613281 7.289063-16.542969 7.289063-26.082031 0-27.796876-22.617188-50.414063-50.414063-50.414063s-50.410156 22.617187-50.410156 50.414063c0 9.539062 2.667969 18.46875 7.285156 26.082031-20.507812 13.882812-34.019531 37.359375-34.019531 63.933593v14.671876c0 10.363281 8.40625 18.765624 18.769531 18.765624h116.753907c10.363281 0 18.765624-8.402343 18.765624-18.765624zm-90.019531-104.6875c0-7.101563 5.777344-12.875 12.875-12.875 7.101563 0 12.875 5.773437 12.875 12.875 0 7.097656-5.773437 12.875-12.875 12.875-7.097656 0-12.875-5.777344-12.875-12.875zm-26.519531 85.921874c2.054688-19.921874 18.941406-35.507812 39.394531-35.507812s37.339844 15.585938 39.394531 35.507812zm0 0"/><path d="m319.777344 177.359375h146.390625c10.359375 0 18.765625-8.40625 18.765625-18.765625 0-10.367188-8.40625-18.769531-18.765625-18.769531h-146.390625c-10.367188 0-18.769532 8.402343-18.769532 18.769531 0 10.359375 8.402344 18.765625 18.769532 18.765625zm0 0"/><path d="m319.777344 245.296875h146.390625c10.359375 0 18.765625-8.402344 18.765625-18.769531 0-10.363282-8.40625-18.769532-18.765625-18.769532h-146.390625c-10.367188 0-18.769532 8.40625-18.769532 18.769532 0 10.367187 8.402344 18.769531 18.769532 18.769531zm0 0"/><path d="m242.199219 347.53125h-157.65625c-10.363281 0-18.765625 8.402344-18.765625 18.765625s8.402344 18.765625 18.765625 18.765625h157.65625c10.363281 0 18.769531-8.402344 18.769531-18.765625s-8.40625-18.765625-18.769531-18.765625zm0 0"/><path d="m242.199219 416.214844h-157.65625c-10.363281 0-18.765625 8.402344-18.765625 18.769531s8.402344 18.769531 18.765625 18.769531h157.65625c10.363281 0 18.769531-8.402344 18.769531-18.769531s-8.40625-18.769531-18.769531-18.769531zm0 0"/><path d="m242.199219 485.160156h-157.65625c-10.363281 0-18.765625 8.402344-18.765625 18.769532 0 10.367187 8.402344 18.769531 18.765625 18.769531h157.65625c10.363281 0 18.769531-8.402344 18.769531-18.769531 0-10.367188-8.40625-18.769532-18.769531-18.769532zm0 0"/><path d="m319.777344 522.699219h141.730468c10.367188 0 18.769532-8.402344 18.769532-18.769531v-68.945313c0-10.367187-8.402344-18.769531-18.769532-18.769531h-141.730468c-10.367188 0-18.769532 8.402344-18.769532 18.769531v68.945313c0 10.367187 8.402344 18.769531 18.769532 18.769531zm18.761718-68.945313h104.199219v31.410156h-104.199219zm0 0"/><path d="m319.777344 385.0625h141.730468c10.367188 0 18.769532-8.402344 18.769532-18.765625v-68.949219c0-10.363281-8.402344-18.769531-18.769532-18.769531h-141.730468c-10.367188 0-18.769532 8.40625-18.769532 18.769531v68.949219c0 10.367187 8.402344 18.765625 18.769532 18.765625zm18.761718-68.945312h104.199219v31.414062h-104.199219zm0 0"/></svg>