<?xml version="1.0" standalone="no"?>
<!DOCTYPE svg PUBLIC "-//W3C//DTD SVG 20010904//EN"
 "http://www.w3.org/TR/2001/REC-SVG-20010904/DTD/svg10.dtd">
<svg version="1.0" xmlns="http://www.w3.org/2000/svg"
 width="400.000000pt" height="400.000000pt" viewBox="0 0 400.000000 400.000000"
 preserveAspectRatio="xMidYMid meet">
<metadata>
Created by potrace 1.15, written by Peter Selinger 2001-2017
</metadata>
<g transform="translate(0.000000,400.000000) scale(0.100000,-0.100000)"
fill="#000000" stroke="none">
<path style = "fill : #FFFFFF" d="M0 2000 l0 -2000 2000 0 2000 0 0 2000 0 2000 -2000 0 -2000 0 0
-2000z m3068 1246 c34 -18 65 -51 86 -94 27 -52 52 -72 91 -72 21 0 41 -7 49
-17 8 -10 26 -32 41 -50 24 -30 90 -67 220 -123 116 -50 195 -93 195 -106 0
-15 -145 -86 -175 -86 -11 0 -85 3 -164 5 l-144 4 -42 -38 c-22 -21 -65 -47
-95 -59 -47 -19 -67 -21 -135 -16 -102 7 -136 -2 -194 -56 -25 -24 -81 -65
-123 -91 l-77 -48 -72 21 c-99 30 -152 22 -246 -37 -87 -53 -178 -74 -242 -55
-61 19 -88 14 -164 -27 -77 -41 -88 -43 -367 -57 -52 -2 -119 -6 -148 -9 -94
-9 -55 17 74 50 65 17 144 40 174 52 30 12 89 32 130 43 85 25 122 44 235 125
75 54 85 58 158 67 44 4 88 13 98 19 10 5 51 40 89 78 66 63 76 69 143 85 40
10 78 20 83 24 6 4 34 42 63 84 49 71 124 146 241 239 25 20 52 49 60 65 20
41 81 93 108 94 13 0 35 -6 50 -14z m-890 -290 c107 -55 112 -56 214 -56 87 0
99 -2 96 -16 -7 -36 -387 -236 -613 -324 -60 -23 -119 -46 -130 -51 -79 -34
-414 -125 -590 -159 -33 -6 -79 -16 -102 -21 -55 -12 -103 -11 -103 1 0 6 6
10 14 10 14 0 242 73 281 90 11 5 42 15 69 24 27 9 56 22 65 30 9 8 52 26 96
41 44 14 96 37 116 50 20 13 65 36 100 50 35 15 75 37 89 49 14 13 51 35 83
49 31 15 57 31 57 37 0 5 33 35 74 65 41 30 91 75 111 100 21 25 40 45 42 45
3 0 17 -6 31 -14z m-623 -158 c37 -9 56 -11 153 -16 24 -2 32 -7 32 -20 0 -38
-425 -218 -670 -284 -19 -5 -51 -13 -70 -19 -67 -18 -329 -69 -356 -69 -22 0
-25 2 -14 15 7 8 18 15 25 15 8 0 60 16 117 36 57 19 112 38 123 41 11 3 38
13 60 23 23 10 59 23 82 29 22 6 52 20 66 31 14 11 35 20 46 20 11 0 41 15 66
34 24 19 55 38 67 42 13 4 42 20 65 35 23 16 45 29 50 29 4 0 26 18 48 40 25
24 46 37 55 33 8 -3 33 -10 55 -15z m-547 -118 c28 -17 52 -35 52 -41 0 -28
-308 -134 -490 -168 -36 -7 -87 -17 -113 -22 -62 -12 -97 -11 -97 1 0 5 19 14
43 21 87 24 223 72 242 85 11 8 26 14 35 14 8 0 31 9 50 20 19 11 66 36 104
55 38 20 78 42 90 50 26 19 22 20 84 -15z m405 -625 c141 -49 211 -143 211
-286 0 -65 -4 -83 -27 -122 -37 -63 -80 -102 -154 -139 -35 -17 -63 -34 -63
-39 0 -4 64 -81 142 -171 77 -89 153 -178 167 -196 14 -18 48 -47 75 -63 33
-21 45 -34 38 -41 -12 -12 -212 -15 -231 -4 -6 4 -9 16 -6 26 4 13 -32 65
-132 187 -152 185 -182 217 -232 238 -63 28 -61 35 -61 -184 l0 -200 36 -29
c23 -20 32 -32 24 -37 -6 -4 -66 -7 -133 -7 -95 0 -123 3 -125 13 -1 8 8 19
20 24 49 22 50 27 44 513 -5 489 -6 496 -58 504 -13 2 -24 11 -26 20 -3 15 10
18 115 21 194 6 300 -2 376 -28z m1154 3 c51 -13 94 -26 96 -28 3 -3 8 -38 11
-77 9 -88 -2 -94 -55 -30 -81 96 -251 138 -414 103 -158 -34 -265 -133 -321
-296 -33 -100 -35 -251 -4 -346 29 -86 110 -205 173 -255 125 -99 234 -126
392 -96 94 18 141 42 197 99 26 26 49 48 52 48 24 0 -30 -155 -58 -168 -44
-22 -205 -45 -306 -46 -290 0 -529 153 -601 385 -28 90 -34 209 -15 299 47
222 201 371 441 426 90 20 295 11 412 -18z m993 11 c52 -12 109 -23 127 -26
37 -6 41 -14 45 -98 4 -74 -14 -83 -53 -27 -65 95 -250 144 -415 108 -220 -47
-347 -221 -348 -476 -1 -146 34 -241 132 -358 112 -134 266 -191 440 -162 101
17 154 43 211 102 25 26 51 48 58 48 21 0 26 -21 9 -39 -9 -10 -23 -38 -32
-63 -8 -25 -23 -52 -32 -60 -26 -23 -206 -52 -317 -52 -251 0 -471 119 -566
306 -45 88 -62 177 -56 288 7 145 49 249 138 344 85 91 203 154 329 176 89 15
232 10 330 -11z m-2702 -71 c2 -60 0 -78 -10 -78 -8 0 -19 13 -25 29 -19 52
-44 60 -195 62 -75 0 -141 -2 -147 -6 -17 -10 -15 -409 2 -423 17 -15 245 -9
274 7 13 6 30 25 38 42 28 53 38 30 39 -85 1 -59 -1 -109 -4 -111 -9 -6 -26 8
-33 27 -15 41 -56 53 -189 56 l-127 4 -6 -24 c-3 -13 -5 -118 -3 -232 l3 -208
33 -27 c17 -15 32 -32 32 -38 0 -6 -50 -9 -132 -9 -73 1 -132 5 -130 9 1 4 2
12 2 17 0 6 6 10 14 10 8 0 22 10 30 22 14 19 16 75 16 402 0 520 -11 596 -86
596 -20 0 -32 13 -21 22 2 2 520 14 582 14 l40 -1 3 -77z"/>
<path style = "fill : #FFFFFF" d="M1156 2022 c-14 -17 -16 -47 -14 -263 l3 -244 62 -3 c115 -5 198 36
250 125 25 43 28 57 28 133 -1 99 -19 145 -84 203 -67 60 -208 89 -245 49z"/>
</g>
</svg>
