<?xml version="1.0"?>
<svg xmlns="http://www.w3.org/2000/svg" width="50" height="50" viewBox="0 0 50 50">
    <path style = "fill :#FFFFFF;" d="M 28.875 0 A 1.0001 1.0001 0 0 0 28.8125 0.03125 L 0.8125 5.34375 A 1.0001 1.0001 0 0 0 0 6.34375 L 0 43.65625 A 1.0001 1.0001 0 0 0 0.8125 44.65625 L 28.8125 49.96875 A 1.0001 1.0001 0 0 0 30 49 L 30 44 L 47 44 C 48.093063 44 49 43.093063 49 42 L 49 8 C 49 6.9069372 48.093063 6 47 6 L 30 6 L 30 1 A 1.0001 1.0001 0 0 0 28.875 0 z M 28 2.1875 L 28 6.6875 A 1.001098 1.001098 0 0 0 28 7.28125 L 28 42.8125 A 1.0001 1.0001 0 0 0 28 43.21875 L 28 47.8125 L 2 42.84375 L 2 7.15625 L 28 2.1875 z M 30 8 L 47 8 L 47 42 L 30 42 L 30 37 L 40 37 L 40 35 L 30 35 L 30 29.4375 C 30.923126 29.804917 31.947569 30 33 30 C 37.406438 30 41 26.406438 41 22 L 41 21 L 40 21 L 34 21 L 34 15 L 34 14 L 33 14 C 31.943146 14 30.930371 14.190925 30 14.5625 L 30 8 z M 35 11 L 35 12 L 35 19 L 35 20 L 36 20 L 43 20 L 44 20 L 44 19 C 44 14.593562 40.406438 11 36 11 L 35 11 z M 37 13.1875 C 39.490698 13.617509 41.382491 15.509302 41.8125 18 L 37 18 L 37 13.1875 z M 8.15625 15.65625 L 8.15625 34.375 L 12.375 34.375 L 12.375 27.9375 L 14.375 27.9375 C 16.637 27.9375 18.4595 27.3485 19.8125 26.1875 C 21.1655 25.0265 21.84375 23.503 21.84375 21.625 C 21.84475 17.65 19.466 15.65625 14.75 15.65625 L 8.15625 15.65625 z M 32 16.25 L 32 22 L 32 23 L 33 23 L 38.8125 23 C 38.324363 25.827389 35.971688 28 33 28 C 31.951632 28 30.980018 27.719489 30.125 27.25 A 1.0138205 1.0138205 0 0 0 30 27.1875 L 30 16.8125 A 1.0077822 1.0077822 0 0 0 30.09375 16.75 C 30.661014 16.433728 31.338461 16.368645 32 16.25 z M 12.375 18.90625 L 14.03125 18.90625 C 16.27525 18.90625 17.40625 19.85825 17.40625 21.78125 C 17.40625 23.74625 16.27525 24.71875 14.03125 24.71875 L 12.375 24.71875 L 12.375 18.90625 z" overflow="visible" enable-background="accumulate" font-family="Bitstream Vera Sans"/>
</svg>
