<svg id="svg" version="1.1" width="400" height="293.4375" viewBox="0 0 400 293.4375" xmlns="http://www.w3.org/2000/svg" xmlns:xlink="http://www.w3.org/1999/xlink" ><g id="svgg"><path style = "fill :#FFFFFF;" d="M27.178 27.118 L 0.000 54.237 0.000 173.853 L 0.000 293.470 172.168 293.470 L 344.336 293.470 351.231 286.647 C 355.023 282.894,367.481 270.479,378.916 259.056 L 399.707 238.289 399.707 119.145 L 399.707 0.000 227.031 0.000 L 54.355 0.000 27.178 27.118 M157.447 51.362 C 162.761 51.741,168.745 52.539,168.745 52.870 C 168.745 53.013,169.076 53.046,169.479 52.945 C 169.937 52.830,170.213 52.886,170.213 53.092 C 170.213 53.298,170.489 53.353,170.946 53.239 C 171.368 53.133,171.680 53.181,171.680 53.352 C 171.680 53.516,171.944 53.581,172.267 53.497 C 172.610 53.407,172.854 53.488,172.854 53.691 C 172.854 53.899,173.078 53.967,173.416 53.860 C 173.725 53.761,174.060 53.813,174.159 53.974 C 174.259 54.135,174.534 54.192,174.771 54.101 C 175.008 54.010,175.202 54.090,175.202 54.278 C 175.202 54.466,175.340 54.535,175.508 54.431 C 175.677 54.327,176.001 54.396,176.229 54.585 C 176.457 54.775,176.781 54.844,176.950 54.740 C 177.118 54.636,177.256 54.705,177.256 54.893 C 177.256 55.081,177.450 55.161,177.687 55.070 C 177.924 54.979,178.186 55.015,178.269 55.150 C 178.353 55.285,179.116 55.620,179.966 55.894 C 182.379 56.672,186.941 58.728,186.941 59.037 C 186.941 59.190,187.073 59.234,187.234 59.134 C 187.395 59.035,187.528 59.101,187.528 59.281 C 187.528 59.461,187.660 59.527,187.821 59.428 C 187.982 59.328,188.114 59.371,188.114 59.523 C 188.114 59.675,188.346 59.879,188.628 59.976 C 189.377 60.233,191.349 61.457,192.117 62.141 C 192.483 62.467,192.845 62.670,192.922 62.593 C 193.000 62.515,193.236 62.729,193.447 63.068 C 193.659 63.406,193.988 63.683,194.180 63.683 C 194.371 63.683,194.788 64.013,195.105 64.417 C 195.423 64.820,195.792 65.150,195.926 65.150 C 196.291 65.150,199.853 68.753,199.853 69.122 C 199.853 69.298,200.253 69.738,200.742 70.099 C 201.231 70.460,201.552 70.882,201.457 71.037 C 201.361 71.191,201.497 71.400,201.759 71.500 C 202.262 71.693,205.136 75.768,205.136 76.289 C 205.136 76.458,205.276 76.596,205.447 76.596 C 205.617 76.596,205.676 76.728,205.576 76.889 C 205.476 77.051,205.534 77.183,205.705 77.183 C 205.876 77.183,206.016 77.381,206.016 77.623 C 206.016 77.865,206.128 78.063,206.265 78.063 C 206.402 78.063,207.142 79.417,207.909 81.071 C 208.676 82.726,209.546 84.561,209.841 85.151 C 210.137 85.740,210.299 86.301,210.203 86.398 C 210.106 86.495,210.189 86.574,210.387 86.574 C 210.584 86.574,210.664 86.707,210.564 86.869 C 210.463 87.032,210.595 87.379,210.857 87.641 C 211.118 87.903,211.263 88.298,211.178 88.519 C 211.093 88.740,211.166 88.921,211.339 88.921 C 211.513 88.921,211.579 89.120,211.486 89.362 C 211.393 89.604,211.459 89.802,211.633 89.802 C 211.806 89.802,211.872 90.000,211.779 90.242 C 211.687 90.484,211.720 90.682,211.853 90.682 C 211.987 90.682,212.532 92.234,213.065 94.131 C 213.598 96.027,214.104 97.705,214.188 97.859 C 214.273 98.013,214.385 98.529,214.437 99.006 C 214.489 99.483,214.662 100.029,214.820 100.220 C 214.979 100.411,215.025 100.651,214.923 100.754 C 214.820 100.856,214.890 101.124,215.077 101.350 C 215.264 101.575,215.335 101.975,215.234 102.237 C 215.127 102.517,215.199 102.715,215.408 102.715 C 215.642 102.715,215.701 102.967,215.580 103.448 C 215.465 103.906,215.520 104.182,215.727 104.182 C 215.933 104.182,215.988 104.458,215.874 104.916 C 215.766 105.345,215.816 105.649,215.994 105.649 C 216.173 105.649,216.222 105.953,216.115 106.383 C 215.993 106.869,216.053 107.117,216.292 107.117 C 216.538 107.117,216.598 107.400,216.478 107.997 C 216.382 108.481,216.413 108.877,216.548 108.877 C 216.803 108.877,217.829 116.083,218.347 121.503 C 219.974 138.547,219.489 157.453,216.977 174.835 C 216.878 175.521,216.680 176.082,216.537 176.082 C 216.394 176.082,216.359 176.412,216.461 176.816 C 216.581 177.297,216.522 177.550,216.288 177.550 C 216.056 177.550,215.993 177.800,216.110 178.265 C 216.209 178.659,216.170 179.055,216.023 179.146 C 215.876 179.237,215.825 179.575,215.909 179.898 C 215.996 180.230,215.918 180.484,215.729 180.484 C 215.520 180.484,215.465 180.758,215.580 181.218 C 215.698 181.689,215.641 181.952,215.419 181.952 C 215.208 181.952,215.146 182.179,215.260 182.539 C 215.375 182.898,215.313 183.125,215.102 183.125 C 214.901 183.125,214.836 183.329,214.946 183.616 C 215.049 183.885,214.999 184.189,214.834 184.291 C 214.669 184.393,214.484 184.865,214.423 185.341 C 214.361 185.817,214.234 186.405,214.142 186.647 C 214.049 186.889,213.563 188.441,213.063 190.095 C 212.563 191.750,212.032 193.103,211.882 193.103 C 211.733 193.103,211.687 193.302,211.779 193.544 C 211.872 193.786,211.794 193.984,211.606 193.984 C 211.418 193.984,211.343 194.112,211.440 194.269 C 211.537 194.425,211.385 194.987,211.104 195.516 C 210.822 196.045,210.618 196.577,210.651 196.698 C 210.685 196.820,210.572 196.919,210.401 196.919 C 210.230 196.919,210.172 197.051,210.271 197.212 C 210.371 197.373,210.305 197.506,210.125 197.506 C 209.944 197.506,209.871 197.626,209.962 197.774 C 210.054 197.922,210.025 198.087,209.899 198.141 C 209.773 198.195,209.168 199.230,208.555 200.440 C 207.941 201.651,207.226 202.806,206.965 203.008 C 206.704 203.210,206.590 203.375,206.710 203.375 C 206.831 203.375,206.696 203.771,206.410 204.255 C 206.124 204.740,205.786 205.136,205.659 205.136 C 205.533 205.136,205.429 205.334,205.429 205.576 C 205.429 205.818,205.231 206.016,204.989 206.016 C 204.747 206.016,204.549 206.224,204.549 206.477 C 204.549 206.731,204.384 207.112,204.182 207.325 C 203.630 207.907,203.002 208.698,202.250 209.758 C 201.878 210.282,201.394 210.712,201.174 210.712 C 200.953 210.712,200.696 210.955,200.602 211.252 C 200.374 211.970,197.243 215.112,196.836 215.031 C 196.661 214.996,196.337 215.329,196.116 215.772 C 195.896 216.214,195.447 216.719,195.121 216.894 C 194.794 217.069,194.272 217.467,193.962 217.777 C 193.651 218.088,193.293 218.342,193.167 218.342 C 193.040 218.342,192.702 218.738,192.416 219.222 C 192.130 219.707,192.023 220.103,192.178 220.103 C 192.334 220.103,192.864 220.796,193.358 221.643 C 195.038 224.527,195.304 224.945,195.598 225.161 C 195.794 225.304,195.794 225.381,195.598 225.390 C 195.437 225.397,195.538 225.539,195.824 225.706 C 196.110 225.872,196.267 226.132,196.174 226.284 C 196.080 226.435,196.157 226.559,196.346 226.559 C 196.534 226.559,196.612 226.757,196.519 226.999 C 196.425 227.245,196.511 227.439,196.714 227.439 C 196.915 227.439,197.337 227.935,197.654 228.540 C 197.970 229.145,198.792 230.533,199.481 231.624 C 200.170 232.716,200.734 233.679,200.734 233.764 C 200.734 233.850,200.993 234.199,201.310 234.539 C 201.628 234.880,201.818 235.271,201.733 235.408 C 201.649 235.545,201.713 235.657,201.876 235.657 C 202.127 235.657,203.692 238.114,204.692 240.077 C 204.851 240.390,205.082 240.646,205.205 240.646 C 205.328 240.646,205.429 240.844,205.429 241.086 C 205.429 241.328,205.528 241.527,205.649 241.528 C 206.022 241.531,206.911 243.319,206.706 243.652 C 206.592 243.836,206.651 243.879,206.851 243.755 C 207.038 243.640,207.190 243.656,207.190 243.792 C 207.190 243.927,207.978 245.255,208.940 246.744 C 209.903 248.232,210.596 249.454,210.481 249.459 C 210.366 249.464,210.505 249.604,210.791 249.770 C 211.077 249.937,211.234 250.197,211.141 250.348 C 211.047 250.500,211.086 250.624,211.227 250.624 C 211.468 250.624,212.766 252.696,212.766 253.080 C 212.766 253.394,209.817 254.758,209.527 254.579 C 209.371 254.483,209.244 254.524,209.244 254.671 C 209.244 254.818,208.353 255.309,207.263 255.764 C 206.174 256.218,204.743 256.898,204.084 257.275 C 203.424 257.651,202.797 257.872,202.690 257.764 C 202.582 257.657,202.494 257.731,202.494 257.929 C 202.494 258.127,202.362 258.207,202.201 258.107 C 202.040 258.007,201.908 258.066,201.908 258.237 C 201.908 258.407,201.809 258.520,201.687 258.487 C 201.566 258.454,201.071 258.636,200.587 258.892 C 200.103 259.148,198.254 259.987,196.478 260.756 C 194.703 261.525,192.561 262.541,191.719 263.015 C 190.876 263.488,190.051 263.791,189.884 263.689 C 189.718 263.586,189.582 263.649,189.582 263.830 C 189.582 264.010,189.450 264.076,189.288 263.977 C 189.127 263.877,188.995 263.943,188.995 264.123 C 188.995 264.304,188.863 264.370,188.701 264.270 C 188.540 264.170,188.408 264.216,188.408 264.371 C 188.408 264.526,188.024 264.786,187.556 264.950 C 186.740 265.234,185.441 263.891,184.627 261.922 C 184.560 261.761,184.263 261.316,183.966 260.934 C 183.670 260.552,183.499 260.123,183.587 259.980 C 183.675 259.838,183.633 259.721,183.495 259.721 C 183.356 259.721,182.663 258.698,181.955 257.447 C 181.248 256.196,180.561 255.128,180.430 255.075 C 180.298 255.021,180.191 254.790,180.191 254.561 C 180.191 254.332,180.051 254.145,179.880 254.145 C 179.709 254.145,179.651 254.013,179.751 253.852 C 179.850 253.690,179.807 253.558,179.655 253.558 C 179.503 253.558,179.300 253.327,179.204 253.045 C 179.107 252.762,178.234 251.231,177.262 249.642 C 176.290 248.053,175.495 246.634,175.495 246.488 C 175.495 246.341,175.363 246.222,175.202 246.222 C 175.040 246.222,174.908 246.023,174.908 245.781 C 174.908 245.539,174.768 245.341,174.598 245.341 C 174.427 245.341,174.368 245.209,174.468 245.048 C 174.568 244.886,174.510 244.754,174.339 244.754 C 174.168 244.754,174.028 244.567,174.028 244.338 C 174.028 244.110,173.921 243.879,173.790 243.825 C 173.660 243.771,173.107 242.935,172.563 241.966 C 172.018 240.998,171.488 240.139,171.385 240.059 C 171.281 239.978,171.109 239.714,171.000 239.472 C 170.760 238.934,170.235 238.096,169.556 237.166 C 169.276 236.782,169.119 236.352,169.207 236.209 C 169.295 236.067,169.236 235.950,169.077 235.950 C 168.917 235.950,168.225 234.927,167.538 233.676 C 166.851 232.425,166.182 231.357,166.050 231.303 C 165.918 231.250,165.811 231.019,165.811 230.790 C 165.811 230.561,165.671 230.374,165.500 230.374 C 165.329 230.374,165.271 230.242,165.371 230.081 C 165.470 229.919,165.412 229.787,165.241 229.787 C 165.070 229.787,164.930 229.646,164.930 229.473 C 164.930 229.300,164.750 228.978,164.529 228.758 C 164.139 228.367,163.683 228.369,160.675 228.777 C 158.386 229.088,156.951 229.179,149.083 229.512 C 147.482 229.580,137.950 229.095,134.556 228.773 C 129.913 228.333,119.415 226.202,119.203 225.656 C 119.153 225.525,118.921 225.491,118.690 225.580 C 118.458 225.669,118.269 225.587,118.269 225.399 C 118.269 225.211,118.148 225.132,118.000 225.223 C 117.852 225.315,117.357 225.234,116.899 225.045 C 116.442 224.856,115.968 224.673,115.847 224.639 C 115.726 224.606,115.528 224.546,115.407 224.507 C 115.286 224.467,115.088 224.451,114.967 224.470 C 114.846 224.489,114.747 224.373,114.747 224.211 C 114.747 224.050,114.648 223.939,114.527 223.964 C 114.018 224.072,107.997 221.278,107.997 220.934 C 107.997 220.800,107.898 220.716,107.777 220.748 C 107.376 220.854,106.236 220.362,106.236 220.083 C 106.236 219.932,106.038 219.809,105.796 219.809 C 105.554 219.809,105.356 219.677,105.356 219.516 C 105.356 219.354,105.257 219.251,105.136 219.287 C 104.823 219.378,102.421 217.729,102.421 217.422 C 102.421 217.283,102.231 217.168,101.998 217.168 C 101.765 217.168,101.366 216.871,101.112 216.508 C 100.857 216.145,100.553 215.847,100.435 215.846 C 100.138 215.844,95.512 211.174,93.957 209.307 C 93.256 208.466,92.786 207.777,92.912 207.777 C 93.039 207.777,92.886 207.583,92.573 207.346 C 92.259 207.109,92.102 206.911,92.223 206.906 C 92.344 206.901,92.183 206.636,91.865 206.318 C 91.547 206.000,90.869 204.911,90.360 203.897 C 89.850 202.884,89.335 201.988,89.216 201.908 C 88.787 201.618,87.437 198.651,87.608 198.375 C 87.704 198.220,87.635 198.092,87.454 198.092 C 87.274 198.092,87.201 197.972,87.292 197.824 C 87.383 197.676,87.341 197.511,87.198 197.457 C 86.909 197.348,85.031 192.461,84.467 190.350 C 84.267 189.605,83.985 188.995,83.840 188.995 C 83.695 188.995,83.651 188.801,83.742 188.564 C 83.832 188.327,83.786 188.059,83.639 187.968 C 83.492 187.877,83.446 187.608,83.537 187.371 C 83.627 187.134,83.542 186.941,83.346 186.941 C 83.150 186.941,83.064 186.747,83.155 186.510 C 83.246 186.273,83.185 185.995,83.019 185.893 C 82.854 185.791,82.788 185.527,82.873 185.306 C 82.957 185.086,82.891 184.821,82.726 184.719 C 82.560 184.617,82.494 184.353,82.579 184.132 C 82.664 183.912,82.601 183.650,82.440 183.550 C 82.279 183.451,82.228 183.117,82.326 182.807 C 82.434 182.469,82.366 182.245,82.157 182.245 C 81.954 182.245,81.874 182.001,81.963 181.658 C 82.048 181.335,82.018 181.071,81.898 181.071 C 81.599 181.071,79.765 170.658,79.366 166.691 C 79.293 165.965,79.169 164.776,79.090 164.050 C 78.486 158.498,78.377 155.044,78.374 141.306 C 78.370 127.715,78.457 125.056,79.092 119.149 C 79.170 118.423,79.296 117.234,79.372 116.508 C 79.811 112.337,81.586 102.421,81.894 102.421 C 82.002 102.421,82.027 102.091,81.950 101.687 C 81.864 101.239,81.945 100.954,82.157 100.954 C 82.371 100.954,82.433 100.728,82.318 100.367 C 82.207 100.015,82.266 99.780,82.465 99.780 C 82.665 99.780,82.723 99.545,82.612 99.193 C 82.509 98.870,82.554 98.606,82.711 98.606 C 82.869 98.606,82.928 98.342,82.844 98.019 C 82.752 97.668,82.835 97.432,83.049 97.432 C 83.247 97.432,83.334 97.238,83.243 97.001 C 83.152 96.764,83.208 96.490,83.366 96.392 C 83.525 96.294,83.630 96.059,83.601 95.869 C 83.571 95.680,83.625 95.326,83.720 95.084 C 83.815 94.842,84.516 92.767,85.278 90.472 C 86.040 88.178,86.773 86.369,86.908 86.452 C 87.043 86.536,87.075 86.399,86.979 86.149 C 86.883 85.898,86.958 85.693,87.147 85.693 C 87.335 85.693,87.407 85.561,87.307 85.400 C 87.208 85.238,87.274 85.106,87.454 85.106 C 87.635 85.106,87.706 84.984,87.614 84.834 C 87.350 84.407,92.011 75.715,92.504 75.715 C 92.632 75.715,92.737 75.537,92.737 75.318 C 92.737 75.099,93.067 74.564,93.470 74.129 C 93.874 73.694,94.204 73.219,94.204 73.074 C 94.204 72.928,94.369 72.704,94.571 72.575 C 94.773 72.446,95.126 71.977,95.355 71.533 C 95.583 71.090,95.968 70.726,96.210 70.726 C 96.452 70.726,96.565 70.642,96.463 70.539 C 96.211 70.287,97.382 68.673,97.819 68.669 C 98.010 68.668,99.000 67.743,100.020 66.615 C 101.039 65.487,102.063 64.563,102.294 64.563 C 102.525 64.563,102.715 64.365,102.715 64.123 C 102.715 63.881,102.826 63.683,102.963 63.683 C 103.100 63.683,103.513 63.422,103.881 63.102 C 104.250 62.783,104.652 62.584,104.776 62.660 C 104.900 62.737,105.068 62.625,105.149 62.412 C 105.308 61.999,108.418 60.053,109.438 59.729 C 109.776 59.622,110.051 59.404,110.051 59.244 C 110.051 59.084,110.183 59.035,110.345 59.134 C 110.506 59.234,110.638 59.154,110.638 58.956 C 110.638 58.758,110.720 58.678,110.820 58.778 C 110.920 58.878,111.183 58.778,111.405 58.556 C 111.627 58.335,113.163 57.633,114.818 56.996 C 116.474 56.360,118.092 55.733,118.415 55.604 C 118.738 55.475,119.101 55.342,119.222 55.308 C 119.343 55.274,119.508 55.213,119.589 55.172 C 119.670 55.132,119.857 55.083,120.005 55.062 C 120.153 55.042,120.364 54.936,120.474 54.826 C 120.584 54.716,120.859 54.697,121.085 54.784 C 121.312 54.871,121.497 54.788,121.497 54.600 C 121.497 54.411,121.635 54.343,121.803 54.447 C 121.972 54.551,122.296 54.481,122.524 54.292 C 122.752 54.103,123.067 54.028,123.224 54.125 C 123.382 54.222,123.599 54.158,123.707 53.983 C 123.815 53.808,124.084 53.734,124.305 53.819 C 124.526 53.904,124.791 53.835,124.895 53.667 C 124.999 53.498,125.334 53.426,125.638 53.505 C 125.943 53.585,126.192 53.516,126.192 53.352 C 126.192 53.181,126.504 53.133,126.926 53.239 C 127.384 53.353,127.660 53.298,127.660 53.092 C 127.660 52.886,127.936 52.830,128.393 52.945 C 128.797 53.046,129.127 53.012,129.127 52.868 C 129.127 51.725,148.264 50.707,157.447 51.362 M281.731 79.492 L 281.731 97.638 299.518 97.493 L 317.305 97.349 317.100 99.958 C 316.898 102.518,316.670 110.491,316.594 117.606 L 316.556 121.199 298.924 121.274 L 281.291 121.350 281.340 151.431 C 281.385 179.288,281.483 186.361,281.866 189.435 C 282.134 191.580,282.174 191.780,282.411 192.150 C 282.541 192.351,282.561 192.654,282.457 192.823 C 282.353 192.991,282.423 193.316,282.612 193.544 C 282.801 193.772,282.871 194.096,282.767 194.264 C 282.662 194.433,282.731 194.571,282.919 194.571 C 283.108 194.571,283.186 194.769,283.093 195.011 C 283.000 195.253,283.066 195.451,283.239 195.451 C 283.413 195.451,283.479 195.649,283.386 195.891 C 283.293 196.134,283.353 196.332,283.519 196.332 C 283.685 196.332,283.739 196.464,283.639 196.625 C 283.539 196.787,283.605 196.919,283.786 196.919 C 283.966 196.919,284.048 197.026,283.967 197.157 C 283.886 197.288,284.573 198.116,285.493 198.996 C 288.360 201.740,288.606 201.777,303.467 201.675 L 315.958 201.589 315.986 203.289 C 316.001 204.224,316.097 206.310,316.200 207.924 C 316.427 211.476,316.623 214.999,316.780 218.342 C 316.845 219.714,316.988 221.319,317.098 221.908 C 317.337 223.181,316.570 223.578,313.720 223.656 C 313.316 223.667,312.838 223.799,312.656 223.949 C 312.475 224.099,312.110 224.138,311.846 224.037 C 311.581 223.935,311.181 224.005,310.956 224.191 C 310.731 224.378,310.219 224.448,309.818 224.347 C 309.417 224.246,309.003 224.302,308.898 224.471 C 308.792 224.643,308.322 224.702,307.839 224.605 C 307.251 224.488,306.970 224.549,306.970 224.794 C 306.970 225.050,306.667 225.100,305.943 224.964 C 305.260 224.836,304.916 224.883,304.916 225.104 C 304.916 225.330,304.537 225.373,303.742 225.238 C 302.907 225.097,302.568 225.143,302.568 225.397 C 302.568 225.651,302.216 225.697,301.345 225.558 C 300.486 225.421,300.052 225.475,299.888 225.741 C 299.559 226.274,281.693 226.296,281.515 225.763 C 281.440 225.537,281.084 225.471,280.537 225.580 C 279.967 225.694,279.677 225.633,279.677 225.399 C 279.677 225.158,279.395 225.107,278.797 225.238 C 278.218 225.366,277.916 225.317,277.916 225.095 C 277.916 224.897,277.685 224.832,277.354 224.937 C 277.045 225.035,276.711 224.984,276.611 224.823 C 276.512 224.662,276.250 224.600,276.029 224.684 C 275.808 224.769,275.544 224.703,275.442 224.538 C 275.340 224.372,275.062 224.311,274.826 224.402 C 274.589 224.493,274.395 224.407,274.395 224.211 C 274.395 224.015,274.201 223.929,273.964 224.020 C 273.727 224.111,273.459 224.065,273.368 223.918 C 273.277 223.771,273.008 223.724,272.771 223.815 C 272.534 223.906,272.340 223.849,272.340 223.688 C 272.340 223.526,271.977 223.304,271.533 223.194 C 270.130 222.845,267.038 221.252,267.214 220.969 C 267.306 220.819,267.177 220.775,266.926 220.871 C 266.676 220.967,266.471 220.900,266.471 220.721 C 266.471 220.542,266.261 220.396,266.003 220.396 C 265.746 220.396,265.467 220.132,265.382 219.809 C 265.298 219.486,264.995 219.222,264.710 219.222 C 264.425 219.222,263.708 218.661,263.118 217.975 C 262.527 217.289,261.852 216.519,261.616 216.263 C 261.381 216.007,261.189 215.644,261.189 215.456 C 261.189 215.268,261.076 215.114,260.939 215.114 C 260.655 215.114,259.086 211.755,258.539 209.978 C 258.340 209.332,258.046 208.639,257.886 208.437 C 257.726 208.236,257.693 208.070,257.814 208.070 C 257.934 208.070,257.868 207.872,257.667 207.630 C 257.466 207.388,257.400 207.190,257.520 207.190 C 257.640 207.190,257.592 207.013,257.412 206.796 C 257.232 206.580,257.169 206.319,257.271 206.216 C 257.373 206.114,257.307 205.850,257.124 205.629 C 256.941 205.409,256.875 205.145,256.978 205.042 C 257.080 204.940,257.001 204.661,256.803 204.422 C 256.605 204.183,256.531 203.844,256.640 203.668 C 256.748 203.493,256.691 203.174,256.513 202.959 C 256.335 202.744,256.272 202.354,256.373 202.091 C 256.481 201.810,256.408 201.614,256.194 201.614 C 255.949 201.614,255.889 201.331,256.009 200.734 C 256.118 200.188,256.064 199.853,255.866 199.853 C 255.661 199.853,255.616 199.488,255.740 198.826 C 255.871 198.126,255.823 197.799,255.588 197.799 C 255.349 197.799,255.304 197.427,255.440 196.576 C 255.552 195.873,255.514 195.278,255.349 195.176 C 254.706 194.779,254.442 182.375,254.441 152.384 L 254.439 121.203 244.901 121.203 L 235.363 121.203 235.363 109.293 L 235.363 97.383 244.901 97.481 L 254.439 97.579 254.439 79.384 L 254.439 61.189 268.085 61.268 L 281.731 61.347 281.731 79.492 M143.056 75.504 C 142.791 75.653,141.991 75.687,141.280 75.580 C 140.365 75.443,139.985 75.488,139.985 75.736 C 139.985 75.971,139.652 76.031,138.964 75.920 C 138.400 75.828,137.859 75.888,137.758 76.052 C 137.656 76.216,137.266 76.273,136.890 76.178 C 136.514 76.084,136.119 76.148,136.012 76.321 C 135.905 76.494,135.610 76.556,135.357 76.459 C 135.104 76.362,134.820 76.388,134.726 76.518 C 134.633 76.647,133.500 77.056,132.208 77.427 C 129.937 78.079,125.561 80.034,125.360 80.486 C 125.306 80.608,125.141 80.633,124.993 80.542 C 124.846 80.451,124.725 80.516,124.725 80.687 C 124.725 80.858,124.527 80.998,124.285 80.998 C 124.043 80.998,123.844 81.097,123.844 81.218 C 123.844 81.339,123.186 81.886,122.383 82.433 C 121.580 82.981,120.719 83.740,120.469 84.121 C 120.220 84.501,119.814 84.813,119.567 84.813 C 119.321 84.813,118.926 85.275,118.690 85.840 C 118.454 86.405,118.126 86.867,117.962 86.867 C 117.798 86.867,117.575 87.098,117.466 87.381 C 117.213 88.039,115.592 90.480,115.251 90.715 C 115.107 90.814,114.995 90.976,115.001 91.076 C 115.020 91.379,113.798 94.047,113.568 94.204 C 113.295 94.390,111.354 99.612,111.087 100.880 C 110.976 101.405,110.776 101.834,110.642 101.834 C 110.509 101.834,110.469 102.098,110.553 102.421 C 110.638 102.744,110.563 103.008,110.388 103.008 C 110.213 103.008,110.141 103.193,110.227 103.419 C 110.314 103.644,110.242 103.918,110.067 104.026 C 109.892 104.134,109.828 104.351,109.925 104.509 C 110.022 104.666,109.947 104.981,109.758 105.209 C 109.569 105.437,109.493 105.752,109.591 105.910 C 109.688 106.067,109.624 106.284,109.449 106.392 C 109.274 106.501,109.208 106.791,109.303 107.037 C 109.397 107.283,109.325 107.664,109.143 107.884 C 108.961 108.103,108.884 108.470,108.971 108.698 C 109.059 108.927,109.041 109.203,108.931 109.313 C 108.821 109.423,108.702 109.799,108.666 110.149 C 108.631 110.499,108.532 111.181,108.446 111.665 C 108.361 112.150,108.221 112.942,108.136 113.426 C 106.556 122.389,105.926 134.975,106.512 145.855 C 106.893 152.927,107.576 159.919,108.425 165.444 C 108.779 167.751,108.890 168.646,108.909 169.332 C 108.920 169.736,109.052 170.214,109.202 170.396 C 109.352 170.577,109.397 170.927,109.303 171.173 C 109.208 171.419,109.272 171.708,109.445 171.815 C 109.618 171.922,109.679 172.332,109.580 172.725 C 109.464 173.190,109.526 173.441,109.758 173.441 C 109.992 173.441,110.052 173.693,109.931 174.175 C 109.815 174.635,109.871 174.908,110.080 174.908 C 110.269 174.908,110.347 175.163,110.260 175.495 C 110.175 175.818,110.240 176.082,110.404 176.082 C 110.573 176.082,110.625 176.390,110.524 176.792 C 110.426 177.182,110.452 177.545,110.583 177.599 C 110.713 177.652,111.261 179.253,111.800 181.155 C 112.340 183.057,112.893 184.682,113.030 184.767 C 113.167 184.852,113.280 185.166,113.280 185.466 C 113.280 185.766,113.417 186.057,113.586 186.113 C 113.755 186.170,113.915 186.511,113.942 186.872 C 113.969 187.232,114.103 187.528,114.240 187.528 C 114.376 187.528,114.413 187.648,114.322 187.796 C 114.231 187.944,114.267 188.109,114.403 188.163 C 114.539 188.217,115.156 189.228,115.773 190.410 C 116.803 192.381,121.619 198.051,122.121 197.884 C 122.224 197.850,122.542 198.081,122.828 198.398 C 123.114 198.714,123.526 198.973,123.743 198.973 C 123.960 198.973,124.138 199.091,124.138 199.235 C 124.138 199.526,128.791 201.908,129.358 201.908 C 129.554 201.908,129.714 202.035,129.714 202.192 C 129.714 202.348,129.895 202.407,130.116 202.322 C 130.338 202.237,130.701 202.340,130.923 202.551 C 131.146 202.762,131.722 202.978,132.205 203.030 C 132.687 203.083,133.167 203.265,133.272 203.435 C 133.377 203.605,133.601 203.658,133.769 203.554 C 133.938 203.450,134.164 203.509,134.272 203.684 C 134.380 203.859,134.649 203.933,134.870 203.848 C 135.091 203.763,135.352 203.826,135.452 203.987 C 135.551 204.148,135.875 204.202,136.170 204.109 C 136.466 204.015,136.791 204.073,136.894 204.239 C 136.996 204.404,137.370 204.531,137.725 204.521 C 138.081 204.511,139.296 204.660,140.426 204.854 C 143.039 205.301,153.561 205.294,156.273 204.844 C 157.403 204.656,158.618 204.511,158.973 204.521 C 159.328 204.531,159.691 204.422,159.780 204.278 C 159.869 204.135,160.191 204.082,160.495 204.162 C 160.800 204.241,161.134 204.169,161.238 204.000 C 161.342 203.832,161.608 203.763,161.829 203.848 C 162.049 203.933,162.313 203.867,162.416 203.701 C 162.518 203.536,162.795 203.475,163.032 203.566 C 163.269 203.657,163.463 203.571,163.463 203.375 C 163.463 203.179,163.657 203.093,163.894 203.184 C 164.131 203.275,164.408 203.214,164.510 203.049 C 164.613 202.883,164.881 202.819,165.107 202.905 C 165.333 202.992,165.517 202.921,165.517 202.747 C 165.517 202.574,165.707 202.504,165.938 202.593 C 166.170 202.682,166.401 202.653,166.452 202.529 C 166.503 202.404,167.535 201.859,168.745 201.317 C 169.956 200.774,171.155 200.157,171.410 199.945 C 171.665 199.733,172.028 199.560,172.217 199.560 C 172.406 199.560,172.561 199.428,172.561 199.266 C 172.561 199.105,172.759 198.973,173.001 198.973 C 173.243 198.973,173.441 198.841,173.441 198.679 C 173.441 198.518,173.568 198.386,173.724 198.386 C 174.383 198.386,179.310 193.472,179.310 192.814 C 179.310 192.667,179.475 192.440,179.677 192.311 C 180.158 192.004,180.517 191.404,182.016 188.408 C 182.703 187.036,183.366 185.869,183.490 185.815 C 183.614 185.761,183.650 185.610,183.569 185.479 C 183.489 185.349,183.645 184.733,183.917 184.110 C 184.188 183.488,184.435 182.880,184.465 182.759 C 184.495 182.638,184.552 182.472,184.593 182.392 C 184.633 182.311,184.699 182.113,184.740 181.952 C 184.780 181.790,184.845 181.559,184.884 181.438 C 184.924 181.317,184.936 181.105,184.911 180.967 C 184.886 180.829,184.998 180.557,185.159 180.362 C 185.507 179.943,187.153 171.954,187.423 169.375 C 187.526 168.383,187.732 167.572,187.881 167.572 C 188.034 167.572,188.065 167.002,187.952 166.251 C 187.815 165.338,187.858 164.930,188.091 164.930 C 188.325 164.930,188.370 164.491,188.238 163.501 C 188.111 162.539,188.161 162.001,188.393 161.858 C 188.627 161.713,188.675 161.152,188.543 160.095 C 188.412 159.046,188.459 158.477,188.690 158.334 C 188.929 158.186,188.971 157.449,188.831 155.843 C 188.722 154.589,188.747 153.491,188.887 153.405 C 189.125 153.258,189.066 134.698,188.807 128.540 C 188.743 127.007,188.686 124.993,188.682 124.065 C 188.677 123.048,188.547 122.377,188.354 122.377 C 188.145 122.377,188.096 121.927,188.214 121.069 C 188.325 120.258,188.273 119.687,188.075 119.565 C 187.882 119.445,187.829 118.924,187.940 118.232 C 188.040 117.606,188.011 117.095,187.875 117.095 C 187.740 117.095,187.466 115.873,187.268 114.380 C 187.069 112.887,186.649 110.477,186.334 109.024 C 186.019 107.572,185.713 106.119,185.655 105.796 C 185.596 105.473,185.522 105.209,185.491 105.209 C 185.459 105.209,185.375 104.754,185.303 104.197 C 185.231 103.640,185.025 103.094,184.845 102.982 C 184.665 102.871,184.603 102.643,184.707 102.474 C 184.811 102.306,184.767 102.089,184.610 101.992 C 184.453 101.895,184.399 101.622,184.490 101.385 C 184.581 101.148,184.514 100.954,184.340 100.954 C 184.166 100.954,184.100 100.756,184.193 100.514 C 184.286 100.271,184.202 100.073,184.006 100.073 C 183.810 100.073,183.726 99.875,183.819 99.633 C 183.911 99.391,183.845 99.193,183.672 99.193 C 183.498 99.193,183.432 98.995,183.525 98.753 C 183.618 98.511,183.552 98.313,183.378 98.313 C 183.205 98.313,183.139 98.114,183.232 97.872 C 183.324 97.630,183.299 97.432,183.175 97.432 C 183.051 97.432,182.773 96.937,182.557 96.332 C 182.340 95.726,181.857 94.535,181.484 93.684 C 181.110 92.834,180.775 92.041,180.739 91.924 C 180.703 91.806,180.498 91.535,180.285 91.322 C 180.072 91.108,179.897 90.745,179.897 90.515 C 179.897 90.284,179.765 90.095,179.604 90.095 C 179.442 90.095,179.310 89.908,179.310 89.680 C 179.310 89.451,179.202 89.220,179.070 89.166 C 178.937 89.112,178.496 88.573,178.088 87.967 C 177.292 86.783,174.144 83.437,173.251 82.826 C 172.952 82.621,172.130 82.093,171.425 81.652 C 170.719 81.212,169.993 80.711,169.811 80.539 C 169.139 79.906,164.999 78.087,162.725 77.426 C 161.436 77.051,160.344 76.664,160.298 76.566 C 160.252 76.468,159.889 76.450,159.491 76.526 C 159.065 76.607,158.767 76.527,158.767 76.331 C 158.767 76.122,158.494 76.066,158.034 76.182 C 157.560 76.301,157.300 76.243,157.300 76.017 C 157.300 75.785,157.015 75.731,156.448 75.856 C 155.936 75.968,155.513 75.911,155.390 75.712 C 155.260 75.501,154.773 75.450,154.053 75.572 C 153.429 75.677,152.750 75.653,152.542 75.519 C 152.023 75.183,143.652 75.170,143.056 75.504 " stroke="none" fill="#44cc54" fill-rule="evenodd"></path><path style = "fill :#FFFFFF;" d="M145.944 51.283 C 147.688 51.335,150.461 51.335,152.107 51.283 C 153.753 51.230,152.326 51.188,148.936 51.188 C 145.547 51.188,144.200 51.231,145.944 51.283 M138.889 51.568 C 139.335 51.635,139.995 51.634,140.356 51.564 C 140.717 51.494,140.352 51.439,139.545 51.441 C 138.738 51.443,138.443 51.500,138.889 51.568 M157.814 51.564 C 158.177 51.634,158.771 51.634,159.134 51.564 C 159.497 51.494,159.200 51.437,158.474 51.437 C 157.748 51.437,157.450 51.494,157.814 51.564 M135.657 51.853 C 135.939 51.927,136.401 51.927,136.684 51.853 C 136.966 51.779,136.735 51.719,136.170 51.719 C 135.605 51.719,135.374 51.779,135.657 51.853 M161.189 51.853 C 161.471 51.927,161.933 51.927,162.216 51.853 C 162.498 51.779,162.267 51.719,161.702 51.719 C 161.137 51.719,160.906 51.779,161.189 51.853 M129.127 52.825 C 129.127 52.986,129.317 53.118,129.550 53.118 C 129.782 53.118,130.054 52.986,130.154 52.825 C 130.254 52.663,130.064 52.531,129.731 52.531 C 129.399 52.531,129.127 52.663,129.127 52.825 M167.572 52.825 C 167.572 52.986,167.836 53.118,168.158 53.118 C 168.481 53.118,168.745 52.986,168.745 52.825 C 168.745 52.663,168.481 52.531,168.158 52.531 C 167.836 52.531,167.572 52.663,167.572 52.825 M127.660 53.118 C 127.660 53.280,127.858 53.412,128.100 53.412 C 128.342 53.412,128.540 53.280,128.540 53.118 C 128.540 52.957,128.342 52.825,128.100 52.825 C 127.858 52.825,127.660 52.957,127.660 53.118 M169.332 53.118 C 169.332 53.280,169.530 53.412,169.773 53.412 C 170.015 53.412,170.213 53.280,170.213 53.118 C 170.213 52.957,170.015 52.825,169.773 52.825 C 169.530 52.825,169.332 52.957,169.332 53.118 M126.192 53.412 C 126.192 53.573,126.390 53.705,126.632 53.705 C 126.875 53.705,127.073 53.573,127.073 53.412 C 127.073 53.250,126.875 53.118,126.632 53.118 C 126.390 53.118,126.192 53.250,126.192 53.412 M170.800 53.412 C 170.800 53.573,170.998 53.705,171.240 53.705 C 171.482 53.705,171.680 53.573,171.680 53.412 C 171.680 53.250,171.482 53.118,171.240 53.118 C 170.998 53.118,170.800 53.250,170.800 53.412 M124.872 53.705 C 124.772 53.866,124.962 53.999,125.294 53.999 C 125.627 53.999,125.899 53.866,125.899 53.705 C 125.899 53.544,125.708 53.412,125.476 53.412 C 125.243 53.412,124.971 53.544,124.872 53.705 M171.974 53.705 C 171.974 53.866,172.172 53.999,172.414 53.999 C 172.656 53.999,172.854 53.866,172.854 53.705 C 172.854 53.544,172.656 53.412,172.414 53.412 C 172.172 53.412,171.974 53.544,171.974 53.705 M116.067 56.503 C 115.334 56.857,115.309 56.898,115.921 56.748 C 116.752 56.545,117.687 56.068,117.241 56.075 C 117.080 56.077,116.552 56.270,116.067 56.503 M181.365 56.590 C 181.607 56.740,182.135 56.951,182.539 57.058 C 183.048 57.195,183.138 57.172,182.832 56.983 C 182.590 56.833,182.062 56.622,181.658 56.515 C 181.148 56.378,181.059 56.401,181.365 56.590 M112.179 58.032 C 111.654 58.293,111.225 58.623,111.225 58.765 C 111.225 58.906,111.093 58.941,110.932 58.841 C 110.770 58.741,110.638 58.799,110.638 58.970 C 110.638 59.141,110.701 59.281,110.777 59.281 C 111.152 59.281,113.573 57.960,113.573 57.755 C 113.573 57.427,113.278 57.485,112.179 58.032 M184.006 57.753 C 184.006 57.955,187.012 59.574,187.387 59.574 C 187.464 59.574,187.528 59.435,187.528 59.264 C 187.528 59.093,187.395 59.035,187.234 59.134 C 187.073 59.234,186.941 59.202,186.941 59.063 C 186.941 58.925,186.343 58.521,185.612 58.166 C 184.141 57.451,184.006 57.416,184.006 57.753 M106.990 61.001 C 106.033 61.601,105.193 62.285,105.123 62.521 C 105.023 62.854,105.084 62.844,105.396 62.478 C 105.616 62.218,106.555 61.581,107.483 61.062 C 109.054 60.184,109.486 59.838,108.951 59.889 C 108.830 59.900,107.948 60.401,106.990 61.001 M190.456 61.277 C 190.856 61.551,191.417 62.007,191.703 62.289 C 192.278 62.857,192.517 62.933,192.517 62.548 C 192.517 62.269,190.320 60.739,189.955 60.764 C 189.830 60.772,190.056 61.003,190.456 61.277 M254.577 79.384 C 254.577 89.552,254.614 93.670,254.659 88.533 C 254.704 83.397,254.704 75.077,254.659 70.045 C 254.614 65.012,254.577 69.215,254.577 79.384 M103.891 63.094 C 103.517 63.418,103.100 63.683,102.963 63.683 C 102.826 63.683,102.715 63.815,102.715 63.977 C 102.715 64.138,102.814 64.265,102.935 64.259 C 103.316 64.241,104.900 62.836,104.731 62.667 C 104.642 62.578,104.264 62.770,103.891 63.094 M192.810 62.731 C 192.810 62.892,193.008 63.189,193.250 63.390 C 193.496 63.593,193.690 63.625,193.690 63.461 C 193.690 63.300,193.492 63.004,193.250 62.803 C 193.005 62.599,192.810 62.567,192.810 62.731 M194.424 64.270 C 194.716 64.593,195.087 64.857,195.249 64.857 C 195.410 64.857,195.303 64.593,195.011 64.270 C 194.719 63.947,194.348 63.683,194.186 63.683 C 194.025 63.683,194.132 63.947,194.424 64.270 M101.225 65.337 C 100.590 66.027,100.579 66.076,101.125 65.793 C 101.854 65.414,102.609 64.563,102.215 64.563 C 102.062 64.563,101.616 64.912,101.225 65.337 M197.693 67.182 C 198.798 68.300,199.762 69.155,199.835 69.082 C 200.006 68.910,196.284 65.150,195.942 65.150 C 195.800 65.150,196.587 66.065,197.693 67.182 M96.845 69.552 C 96.500 70.037,96.336 70.433,96.481 70.433 C 96.780 70.433,98.019 69.177,98.019 68.873 C 98.019 68.395,97.424 68.740,96.845 69.552 M200.587 70.433 C 200.879 70.756,201.250 71.020,201.412 71.020 C 201.573 71.020,201.466 70.756,201.174 70.433 C 200.882 70.110,200.511 69.846,200.349 69.846 C 200.188 69.846,200.295 70.110,200.587 70.433 M202.113 72.267 C 202.443 72.630,203.213 73.689,203.823 74.619 C 204.432 75.550,204.989 76.254,205.059 76.184 C 205.271 75.972,202.208 71.607,201.847 71.607 C 201.663 71.607,201.782 71.904,202.113 72.267 M93.193 74.411 C 92.916 74.834,92.748 75.238,92.820 75.310 C 92.892 75.381,93.177 75.094,93.454 74.672 C 93.731 74.249,93.899 73.845,93.827 73.773 C 93.755 73.701,93.470 73.988,93.193 74.411 M146.148 75.128 C 146.148 75.504,149.088 75.504,149.670 75.128 C 149.978 74.929,149.516 74.843,148.129 74.839 C 147.001 74.837,146.148 74.961,146.148 75.128 M141.159 75.422 C 141.159 75.796,142.634 75.796,143.213 75.422 C 143.536 75.214,143.320 75.136,142.406 75.133 C 141.720 75.130,141.159 75.260,141.159 75.422 M152.458 75.422 C 152.558 75.583,152.954 75.715,153.338 75.715 C 153.723 75.715,154.119 75.583,154.219 75.422 C 154.327 75.247,153.971 75.128,153.338 75.128 C 152.705 75.128,152.350 75.247,152.458 75.422 M138.371 75.715 C 138.471 75.877,138.875 76.009,139.269 76.009 C 139.663 76.009,139.985 75.877,139.985 75.715 C 139.985 75.554,139.581 75.422,139.088 75.422 C 138.564 75.422,138.265 75.544,138.371 75.715 M155.393 75.715 C 155.492 75.877,155.764 76.009,155.997 76.009 C 156.229 76.009,156.420 75.877,156.420 75.715 C 156.420 75.554,156.148 75.422,155.815 75.422 C 155.483 75.422,155.293 75.554,155.393 75.715 M91.212 77.550 C 89.318 80.826,87.425 84.588,87.588 84.751 C 87.818 84.981,87.812 84.992,89.597 81.218 C 90.494 79.321,91.345 77.770,91.488 77.770 C 91.631 77.770,91.968 77.307,92.237 76.742 C 93.052 75.033,92.344 75.591,91.212 77.550 M136.757 76.009 C 136.757 76.170,136.947 76.302,137.180 76.302 C 137.413 76.302,137.685 76.170,137.784 76.009 C 137.884 75.847,137.694 75.715,137.361 75.715 C 137.029 75.715,136.757 75.847,136.757 76.009 M157.300 76.009 C 157.300 76.170,157.498 76.302,157.740 76.302 C 157.982 76.302,158.180 76.170,158.180 76.009 C 158.180 75.847,157.982 75.715,157.740 75.715 C 157.498 75.715,157.300 75.847,157.300 76.009 M158.767 76.302 C 158.767 76.464,159.032 76.596,159.354 76.596 C 159.677 76.596,159.941 76.464,159.941 76.302 C 159.941 76.141,159.677 76.009,159.354 76.009 C 159.032 76.009,158.767 76.141,158.767 76.302 M133.822 76.596 C 133.822 76.757,134.021 76.889,134.263 76.889 C 134.505 76.889,134.703 76.757,134.703 76.596 C 134.703 76.434,134.505 76.302,134.263 76.302 C 134.021 76.302,133.822 76.434,133.822 76.596 M160.235 76.596 C 160.235 76.757,160.433 76.889,160.675 76.889 C 160.917 76.889,161.115 76.757,161.115 76.596 C 161.115 76.434,160.917 76.302,160.675 76.302 C 160.433 76.302,160.235 76.434,160.235 76.596 M205.136 76.764 C 205.136 77.012,206.686 79.652,206.936 79.829 C 207.054 79.913,207.642 81.070,208.242 82.402 C 208.842 83.733,209.387 84.768,209.453 84.702 C 209.643 84.512,206.547 78.063,206.267 78.063 C 206.129 78.063,206.016 77.865,206.016 77.623 C 206.016 77.381,205.876 77.183,205.705 77.183 C 205.534 77.183,205.476 77.051,205.576 76.889 C 205.676 76.728,205.617 76.596,205.447 76.596 C 205.276 76.596,205.136 76.671,205.136 76.764 M126.587 79.350 C 125.104 80.072,123.374 81.186,122.647 81.889 L 121.350 83.140 122.524 82.301 C 123.169 81.840,123.742 81.358,123.796 81.230 C 123.849 81.102,124.080 80.998,124.309 80.998 C 124.538 80.998,124.725 80.858,124.725 80.687 C 124.725 80.516,124.846 80.451,124.993 80.542 C 125.141 80.633,125.306 80.608,125.360 80.486 C 125.414 80.364,126.449 79.771,127.660 79.168 C 128.870 78.565,129.719 78.069,129.546 78.067 C 129.373 78.065,128.041 78.642,126.587 79.350 M167.425 79.237 C 167.909 79.558,168.461 79.821,168.651 79.822 C 168.841 79.823,169.171 79.994,169.385 80.202 C 170.092 80.891,171.974 81.931,171.974 81.633 C 171.974 81.294,170.514 80.351,168.434 79.348 C 166.674 78.499,166.238 78.451,167.425 79.237 M119.988 83.907 C 119.607 84.216,119.386 84.560,119.496 84.670 C 119.765 84.940,120.251 84.615,120.625 83.916 C 121.009 83.199,120.864 83.197,119.988 83.907 M175.488 84.952 C 176.361 85.836,177.141 86.493,177.221 86.413 C 177.413 86.221,174.577 83.346,174.196 83.346 C 174.034 83.346,174.615 84.069,175.488 84.952 M209.552 85.253 C 209.544 85.689,210.068 86.435,210.252 86.250 C 210.340 86.163,210.220 85.836,209.984 85.525 C 209.749 85.214,209.554 85.092,209.552 85.253 M118.145 86.042 C 117.684 86.701,117.719 87.060,118.214 86.754 C 118.481 86.589,118.907 85.400,118.698 85.400 C 118.641 85.400,118.393 85.689,118.145 86.042 M86.602 86.618 C 86.183 87.821,86.193 87.876,86.739 87.331 C 86.992 87.078,87.116 86.739,87.015 86.576 C 86.915 86.413,86.972 86.280,87.143 86.280 C 87.314 86.280,87.454 86.148,87.454 85.987 C 87.454 85.342,86.905 85.748,86.602 86.618 M178.160 88.088 C 178.539 88.627,178.953 89.112,179.080 89.166 C 179.207 89.220,179.310 89.451,179.310 89.680 C 179.310 89.908,179.428 90.095,179.572 90.095 C 179.716 90.095,179.917 90.426,180.018 90.829 C 180.119 91.233,180.327 91.563,180.480 91.563 C 181.088 91.563,179.014 88.070,178.047 87.467 C 177.540 87.150,177.553 87.224,178.160 88.088 M116.512 88.474 C 116.155 89.051,115.671 89.717,115.435 89.952 C 114.898 90.490,112.394 95.744,112.414 96.292 C 112.423 96.516,112.644 96.170,112.907 95.525 C 113.170 94.879,113.475 94.285,113.584 94.204 C 113.805 94.041,115.019 91.362,115.001 91.076 C 114.995 90.976,115.107 90.814,115.251 90.715 C 115.665 90.429,117.429 87.691,117.289 87.550 C 117.219 87.480,116.869 87.896,116.512 88.474 M210.423 87.674 C 210.431 88.076,210.970 88.761,211.143 88.588 C 211.374 88.357,211.006 87.454,210.680 87.454 C 210.536 87.454,210.420 87.553,210.423 87.674 M85.726 88.954 C 85.545 89.473,85.449 89.948,85.511 90.011 C 85.574 90.074,85.773 89.701,85.954 89.182 C 86.135 88.664,86.232 88.188,86.169 88.125 C 86.106 88.062,85.907 88.435,85.726 88.954 M211.592 90.958 C 211.592 91.110,211.714 91.310,211.863 91.402 C 212.012 91.494,212.223 91.974,212.331 92.467 C 212.440 92.961,212.591 93.303,212.667 93.226 C 212.880 93.014,212.121 90.682,211.839 90.682 C 211.703 90.682,211.592 90.807,211.592 90.958 M84.546 92.470 C 84.348 93.132,84.239 93.728,84.305 93.794 C 84.371 93.860,84.588 93.372,84.786 92.710 C 84.985 92.048,85.093 91.452,85.027 91.386 C 84.961 91.319,84.745 91.807,84.546 92.470 M181.006 92.718 C 181.278 93.191,181.541 93.539,181.590 93.489 C 181.749 93.330,180.985 91.856,180.744 91.856 C 180.616 91.856,180.734 92.244,181.006 92.718 M181.669 93.950 C 181.663 94.053,181.851 94.581,182.087 95.124 C 182.323 95.667,182.516 95.913,182.517 95.671 C 182.518 95.248,181.690 93.568,181.669 93.950 M213.394 95.965 C 213.394 96.207,213.508 96.669,213.646 96.992 C 213.805 97.362,213.899 97.416,213.899 97.139 C 213.899 96.897,213.785 96.434,213.646 96.112 C 213.487 95.742,213.394 95.687,213.394 95.965 M82.759 97.872 C 82.759 98.114,82.891 98.313,83.052 98.313 C 83.213 98.313,83.346 98.114,83.346 97.872 C 83.346 97.630,83.213 97.432,83.052 97.432 C 82.891 97.432,82.759 97.630,82.759 97.872 M235.363 97.726 C 235.363 97.915,238.445 98.019,244.021 98.019 C 249.596 98.019,252.678 97.915,252.678 97.726 C 252.678 97.537,249.596 97.432,244.021 97.432 C 238.445 97.432,235.363 97.537,235.363 97.726 M288.921 97.726 C 288.802 97.920,293.467 98.019,302.697 98.019 L 316.654 98.019 316.675 100.440 C 316.701 103.466,317.191 102.676,317.221 99.560 L 317.241 97.432 303.172 97.432 C 294.109 97.432,289.038 97.537,288.921 97.726 M183.419 98.899 C 183.419 99.061,183.547 99.193,183.703 99.193 C 183.860 99.193,183.911 99.391,183.819 99.633 C 183.726 99.875,183.810 100.073,184.006 100.073 C 184.202 100.073,184.286 100.271,184.193 100.514 C 184.100 100.756,184.152 100.954,184.309 100.954 C 184.674 100.954,184.667 100.667,184.271 99.530 C 183.968 98.661,183.419 98.255,183.419 98.899 M81.878 101.541 C 81.878 101.864,82.010 102.128,82.172 102.128 C 82.333 102.128,82.465 101.864,82.465 101.541 C 82.465 101.218,82.333 100.954,82.172 100.954 C 82.010 100.954,81.878 101.218,81.878 101.541 M214.820 101.834 C 214.820 102.382,214.899 102.460,215.172 102.186 C 215.446 101.912,215.446 101.756,215.172 101.482 C 214.899 101.208,214.820 101.286,214.820 101.834 M110.051 102.568 C 110.051 102.810,110.183 103.008,110.345 103.008 C 110.506 103.008,110.638 102.810,110.638 102.568 C 110.638 102.326,110.506 102.128,110.345 102.128 C 110.183 102.128,110.051 102.326,110.051 102.568 M81.585 102.861 C 81.585 103.103,81.717 103.302,81.878 103.302 C 82.040 103.302,82.172 103.103,82.172 102.861 C 82.172 102.619,82.040 102.421,81.878 102.421 C 81.717 102.421,81.585 102.619,81.585 102.861 M215.114 103.155 C 215.114 103.397,215.246 103.595,215.407 103.595 C 215.569 103.595,215.701 103.397,215.701 103.155 C 215.701 102.913,215.569 102.715,215.407 102.715 C 215.246 102.715,215.114 102.913,215.114 103.155 M215.407 104.622 C 215.407 104.864,215.539 105.062,215.701 105.062 C 215.862 105.062,215.994 104.864,215.994 104.622 C 215.994 104.380,215.862 104.182,215.701 104.182 C 215.539 104.182,215.407 104.380,215.407 104.622 M215.994 107.704 C 215.994 108.026,216.126 108.291,216.288 108.291 C 216.449 108.291,216.581 108.026,216.581 107.704 C 216.581 107.381,216.449 107.117,216.288 107.117 C 216.126 107.117,215.994 107.381,215.994 107.704 M316.390 111.005 C 316.409 113.112,316.504 114.041,316.654 113.573 C 317.003 112.484,317.003 107.704,316.654 107.704 C 316.474 107.704,316.372 108.980,316.390 111.005 M216.288 109.318 C 216.288 109.560,216.420 109.758,216.581 109.758 C 216.742 109.758,216.875 109.560,216.875 109.318 C 216.875 109.076,216.742 108.877,216.581 108.877 C 216.420 108.877,216.288 109.076,216.288 109.318 M108.299 110.506 C 108.307 111.265,108.347 111.305,108.623 110.830 C 108.849 110.442,108.847 110.196,108.614 109.964 C 108.378 109.728,108.293 109.875,108.299 110.506 M108.002 112.472 C 108.005 113.006,108.060 113.049,108.291 112.693 C 108.658 112.124,108.658 111.812,108.291 111.812 C 108.129 111.812,107.999 112.109,108.002 112.472 M79.405 115.236 C 79.302 115.505,79.354 115.862,79.521 116.029 C 79.729 116.237,79.824 116.084,79.824 115.539 C 79.824 114.634,79.677 114.528,79.405 115.236 M187.528 116.508 C 187.528 116.831,187.660 117.095,187.821 117.095 C 187.982 117.095,188.114 116.831,188.114 116.508 C 188.114 116.185,187.982 115.921,187.821 115.921 C 187.660 115.921,187.528 116.185,187.528 116.508 M79.134 117.750 C 79.040 118.110,79.090 118.533,79.247 118.689 C 79.429 118.872,79.530 118.639,79.530 118.034 C 79.530 116.936,79.376 116.826,79.134 117.750 M217.823 117.975 C 217.823 118.540,217.883 118.771,217.957 118.489 C 218.031 118.206,218.031 117.744,217.957 117.461 C 217.883 117.179,217.823 117.410,217.823 117.975 M107.185 118.562 C 107.185 119.127,107.245 119.358,107.319 119.076 C 107.393 118.793,107.393 118.331,107.319 118.048 C 107.245 117.766,107.185 117.997,107.185 118.562 M187.821 118.691 C 187.821 119.085,187.953 119.489,188.114 119.589 C 188.286 119.695,188.408 119.397,188.408 118.873 C 188.408 118.379,188.276 117.975,188.114 117.975 C 187.953 117.975,187.821 118.297,187.821 118.691 M316.067 120.012 L 316.067 120.910 298.606 120.910 C 289.002 120.910,281.145 121.009,281.144 121.130 C 281.144 121.251,289.134 121.315,298.899 121.272 L 316.654 121.194 316.654 120.336 C 316.654 119.863,316.522 119.395,316.361 119.296 C 316.190 119.190,316.067 119.488,316.067 120.012 M78.765 120.785 C 78.658 121.211,78.720 121.684,78.906 121.870 C 79.152 122.116,79.237 121.921,79.237 121.115 C 79.237 119.851,79.035 119.709,78.765 120.785 M218.122 121.056 C 218.126 121.702,218.186 121.932,218.256 121.567 C 218.326 121.202,218.324 120.673,218.250 120.393 C 218.177 120.112,218.119 120.411,218.122 121.056 M188.114 121.497 C 188.114 121.981,188.247 122.377,188.408 122.377 C 188.569 122.377,188.701 121.981,188.701 121.497 C 188.701 121.012,188.569 120.616,188.408 120.616 C 188.247 120.616,188.114 121.012,188.114 121.497 M244.826 121.128 L 254.436 121.211 254.513 153.489 L 254.589 185.767 254.587 153.412 L 254.585 121.056 244.901 121.050 L 235.216 121.044 244.826 121.128 M106.610 124.431 C 106.610 125.158,106.667 125.455,106.737 125.092 C 106.807 124.729,106.807 124.134,106.737 123.771 C 106.667 123.408,106.610 123.705,106.610 124.431 M218.342 124.449 C 218.342 125.104,218.448 125.574,218.579 125.494 C 218.806 125.353,218.692 123.258,218.457 123.258 C 218.393 123.258,218.342 123.794,218.342 124.449 M78.535 124.015 C 78.260 124.730,78.324 125.844,78.650 126.045 C 78.829 126.156,78.944 125.706,78.944 124.889 C 78.944 123.484,78.831 123.243,78.535 124.015 M188.412 124.652 C 188.415 125.095,188.545 125.657,188.701 125.899 C 188.910 126.221,188.987 126.005,188.990 125.092 C 188.993 124.406,188.863 123.844,188.701 123.844 C 188.540 123.844,188.410 124.208,188.412 124.652 M106.333 129.567 C 106.334 130.697,106.387 131.123,106.450 130.514 C 106.514 129.905,106.513 128.981,106.448 128.460 C 106.383 127.939,106.331 128.437,106.333 129.567 M218.668 129.259 C 218.645 130.477,218.728 130.912,218.943 130.697 C 219.150 130.490,219.161 129.920,218.976 128.951 L 218.701 127.513 218.668 129.259 M78.248 128.907 C 77.965 129.962,78.036 132.304,78.357 132.502 C 78.542 132.617,78.650 131.869,78.650 130.465 C 78.650 128.165,78.550 127.779,78.248 128.907 M188.706 129.640 C 188.708 130.407,188.838 131.233,188.995 131.475 C 189.195 131.785,189.281 131.373,189.284 130.081 C 189.286 129.051,189.160 128.247,188.995 128.247 C 188.833 128.247,188.703 128.874,188.706 129.640 M219.017 141.746 C 219.019 149.095,219.024 149.157,219.296 145.207 C 219.471 142.673,219.471 139.905,219.295 137.724 C 219.036 134.507,219.016 134.791,219.017 141.746 M188.995 142.316 C 188.995 146.488,189.106 149.117,189.288 149.230 C 189.481 149.349,189.582 147.032,189.582 142.497 C 189.582 138.084,189.476 135.583,189.288 135.583 C 189.101 135.583,188.995 138.023,188.995 142.316 M78.177 141.599 C 78.178 143.698,78.224 144.518,78.281 143.421 C 78.338 142.325,78.337 140.608,78.280 139.606 C 78.223 138.604,78.177 139.501,78.177 141.599 M106.333 145.121 C 106.334 146.251,106.387 146.677,106.450 146.068 C 106.514 145.459,106.513 144.535,106.448 144.014 C 106.383 143.493,106.331 143.991,106.333 145.121 M106.614 150.404 C 106.616 151.211,106.673 151.506,106.740 151.060 C 106.808 150.614,106.806 149.953,106.736 149.592 C 106.667 149.231,106.611 149.596,106.614 150.404 M78.084 151.944 C 78.118 154.283,78.606 154.808,78.629 152.531 C 78.641 151.392,78.525 150.550,78.357 150.550 C 78.195 150.550,78.072 151.178,78.084 151.944 M106.897 154.219 C 106.900 154.864,106.961 155.094,107.031 154.729 C 107.101 154.364,107.098 153.835,107.025 153.555 C 106.951 153.274,106.894 153.573,106.897 154.219 M188.897 153.387 C 188.585 153.700,188.671 156.126,188.995 156.126 C 189.156 156.126,189.288 155.466,189.288 154.659 C 189.288 153.171,189.247 153.037,188.897 153.387 M218.679 155.099 L 218.704 157.153 218.964 155.588 C 219.127 154.611,219.117 153.840,218.939 153.534 C 218.736 153.186,218.661 153.637,218.679 155.099 M107.185 157.300 C 107.185 157.865,107.245 158.096,107.319 157.814 C 107.393 157.531,107.393 157.069,107.319 156.787 C 107.245 156.504,107.185 156.735,107.185 157.300 M78.527 157.082 C 78.398 157.366,78.399 158.092,78.529 158.696 C 78.750 159.720,78.774 159.740,78.874 158.988 C 79.047 157.701,78.817 156.444,78.527 157.082 M188.604 158.376 C 188.300 158.680,188.373 160.179,188.701 160.382 C 188.879 160.491,188.995 160.091,188.995 159.372 C 188.995 158.155,188.947 158.033,188.604 158.376 M107.410 159.959 C 107.410 160.452,107.524 160.786,107.664 160.699 C 107.901 160.553,107.772 159.061,107.523 159.061 C 107.461 159.061,107.410 159.465,107.410 159.959 M218.422 160.528 C 218.422 161.255,218.479 161.552,218.549 161.189 C 218.619 160.825,218.619 160.231,218.549 159.868 C 218.479 159.505,218.422 159.802,218.422 160.528 M78.655 161.775 C 78.657 162.139,78.787 162.634,78.944 162.876 C 79.155 163.203,79.229 163.034,79.232 162.216 C 79.235 161.610,79.105 161.115,78.944 161.115 C 78.782 161.115,78.652 161.412,78.655 161.775 M107.704 162.453 C 107.704 162.866,107.823 163.130,107.970 163.040 C 108.116 162.949,108.166 162.611,108.082 162.289 C 107.871 161.481,107.704 161.554,107.704 162.453 M188.310 161.898 C 188.001 162.207,188.083 163.756,188.408 163.756 C 188.569 163.756,188.701 163.294,188.701 162.729 C 188.701 161.674,188.648 161.560,188.310 161.898 M218.128 164.050 C 218.128 164.776,218.186 165.073,218.256 164.710 C 218.325 164.347,218.325 163.753,218.256 163.390 C 218.186 163.026,218.128 163.324,218.128 164.050 M108.006 164.769 C 107.999 165.400,108.085 165.547,108.321 165.311 C 108.553 165.079,108.556 164.833,108.330 164.445 C 108.054 163.970,108.014 164.010,108.006 164.769 M79.107 164.610 C 79.016 164.756,79.066 165.185,79.218 165.564 C 79.475 166.206,79.494 166.189,79.512 165.297 C 79.531 164.333,79.407 164.124,79.107 164.610 M187.821 165.664 C 187.821 166.067,187.953 166.398,188.114 166.398 C 188.276 166.398,188.408 166.067,188.408 165.664 C 188.408 165.260,188.276 164.930,188.114 164.930 C 187.953 164.930,187.821 165.260,187.821 165.664 M108.295 166.618 C 108.293 166.981,108.423 167.278,108.584 167.278 C 108.952 167.278,108.952 166.967,108.584 166.398 C 108.354 166.042,108.299 166.084,108.295 166.618 M217.823 166.985 C 217.823 167.550,217.883 167.781,217.957 167.498 C 218.031 167.216,218.031 166.753,217.957 166.471 C 217.883 166.189,217.823 166.420,217.823 166.985 M79.400 167.251 C 79.310 167.397,79.360 167.827,79.511 168.205 C 79.769 168.848,79.788 168.830,79.805 167.938 C 79.824 166.974,79.701 166.765,79.400 167.251 M187.528 168.305 C 187.528 168.709,187.660 169.039,187.821 169.039 C 187.982 169.039,188.114 168.709,188.114 168.305 C 188.114 167.902,187.982 167.572,187.821 167.572 C 187.660 167.572,187.528 167.902,187.528 168.305 M108.593 168.877 C 108.586 169.509,108.672 169.656,108.908 169.419 C 109.140 169.187,109.143 168.942,108.917 168.554 C 108.641 168.079,108.601 168.119,108.593 168.877 M281.217 176.963 C 281.187 181.401,281.257 184.835,281.374 184.593 C 281.490 184.351,281.514 180.719,281.428 176.522 L 281.272 168.892 281.217 176.963 M109.171 172.267 C 109.171 172.815,109.249 172.893,109.523 172.619 C 109.797 172.345,109.797 172.189,109.523 171.915 C 109.249 171.641,109.171 171.719,109.171 172.267 M109.464 173.881 C 109.464 174.123,109.596 174.321,109.758 174.321 C 109.919 174.321,110.051 174.123,110.051 173.881 C 110.051 173.639,109.919 173.441,109.758 173.441 C 109.596 173.441,109.464 173.639,109.464 173.881 M109.758 175.348 C 109.758 175.591,109.890 175.789,110.051 175.789 C 110.213 175.789,110.345 175.591,110.345 175.348 C 110.345 175.106,110.213 174.908,110.051 174.908 C 109.890 174.908,109.758 175.106,109.758 175.348 M216.288 175.495 C 216.288 175.818,216.420 176.082,216.581 176.082 C 216.742 176.082,216.875 175.818,216.875 175.495 C 216.875 175.172,216.742 174.908,216.581 174.908 C 216.420 174.908,216.288 175.172,216.288 175.495 M110.051 176.522 C 110.051 176.764,110.183 176.963,110.345 176.963 C 110.506 176.963,110.638 176.764,110.638 176.522 C 110.638 176.280,110.506 176.082,110.345 176.082 C 110.183 176.082,110.051 176.280,110.051 176.522 M215.994 177.109 C 215.994 177.351,216.126 177.550,216.288 177.550 C 216.449 177.550,216.581 177.351,216.581 177.109 C 216.581 176.867,216.449 176.669,216.288 176.669 C 216.126 176.669,215.994 176.867,215.994 177.109 M110.973 179.017 C 110.973 179.259,111.087 179.721,111.225 180.044 C 111.384 180.414,111.477 180.468,111.477 180.191 C 111.477 179.949,111.364 179.486,111.225 179.164 C 111.066 178.794,110.973 178.739,110.973 179.017 M215.407 180.044 C 215.407 180.286,215.539 180.484,215.701 180.484 C 215.862 180.484,215.994 180.286,215.994 180.044 C 215.994 179.802,215.862 179.604,215.701 179.604 C 215.539 179.604,215.407 179.802,215.407 180.044 M81.585 180.631 C 81.585 180.873,81.717 181.071,81.878 181.071 C 82.040 181.071,82.172 180.873,82.172 180.631 C 82.172 180.389,82.040 180.191,81.878 180.191 C 81.717 180.191,81.585 180.389,81.585 180.631 M215.114 181.511 C 215.114 181.753,215.246 181.952,215.407 181.952 C 215.569 181.952,215.701 181.753,215.701 181.511 C 215.701 181.269,215.569 181.071,215.407 181.071 C 215.246 181.071,215.114 181.269,215.114 181.511 M81.878 181.805 C 81.878 182.047,82.010 182.245,82.172 182.245 C 82.333 182.245,82.465 182.047,82.465 181.805 C 82.465 181.563,82.333 181.365,82.172 181.365 C 82.010 181.365,81.878 181.563,81.878 181.805 M184.556 182.343 C 184.470 182.802,184.385 183.037,183.915 184.115 C 183.338 185.436,183.332 185.473,183.689 185.473 C 184.020 185.473,185.016 182.570,184.769 182.324 C 184.672 182.227,184.576 182.235,184.556 182.343 M82.759 185.456 C 82.759 185.608,82.885 185.810,83.039 185.906 C 83.194 186.001,83.246 186.273,83.155 186.510 C 83.064 186.747,83.135 186.941,83.314 186.941 C 83.683 186.941,83.704 186.773,83.454 185.840 C 83.281 185.195,82.759 184.907,82.759 185.456 M183.003 186.249 C 182.758 186.889,183.084 187.187,183.430 186.639 C 183.777 186.090,183.785 185.767,183.450 185.767 C 183.306 185.767,183.105 185.984,183.003 186.249 M113.395 186.524 C 113.493 186.780,113.573 187.044,113.573 187.111 C 113.573 187.179,113.693 187.234,113.839 187.234 C 113.985 187.234,114.036 186.970,113.952 186.647 C 113.867 186.324,113.667 186.060,113.507 186.060 C 113.348 186.060,113.297 186.269,113.395 186.524 M181.878 188.775 C 181.438 189.599,181.134 190.330,181.202 190.397 C 181.270 190.465,181.673 189.834,182.098 188.995 C 183.105 187.009,182.919 186.823,181.878 188.775 M281.463 188.247 C 281.447 188.999,281.538 189.305,281.724 189.120 C 281.901 188.943,281.910 188.501,281.749 187.961 C 281.492 187.098,281.488 187.101,281.463 188.247 M113.866 187.686 C 113.866 188.066,115.147 190.306,115.686 190.870 C 116.171 191.377,116.132 191.196,115.475 189.875 C 115.033 188.988,114.556 188.217,114.414 188.163 C 114.272 188.109,114.231 187.944,114.322 187.796 C 114.413 187.648,114.348 187.528,114.177 187.528 C 114.006 187.528,113.866 187.599,113.866 187.686 M254.823 190.315 C 254.825 191.284,254.880 191.645,254.945 191.117 C 255.010 190.590,255.009 189.797,254.942 189.356 C 254.875 188.915,254.821 189.347,254.823 190.315 M212.499 191.076 C 212.301 191.738,212.192 192.334,212.258 192.400 C 212.324 192.466,212.541 191.978,212.739 191.316 C 212.938 190.654,213.046 190.058,212.980 189.992 C 212.914 189.926,212.698 190.413,212.499 191.076 M281.736 190.682 C 281.733 191.045,281.864 191.343,282.025 191.343 C 282.393 191.343,282.393 191.031,282.025 190.462 C 281.795 190.106,281.740 190.148,281.736 190.682 M282.025 192.517 C 282.025 193.064,282.103 193.143,282.377 192.869 C 282.651 192.595,282.651 192.438,282.377 192.164 C 282.103 191.890,282.025 191.969,282.025 192.517 M179.397 192.737 C 179.293 193.019,179.034 193.355,178.823 193.483 C 178.210 193.853,177.725 194.891,178.261 194.685 C 178.679 194.525,180.191 192.726,180.191 192.389 C 180.191 191.996,179.569 192.268,179.397 192.737 M116.801 192.782 C 116.801 192.955,117.874 194.188,119.186 195.521 C 120.497 196.855,121.521 197.798,121.460 197.616 C 121.283 197.087,116.801 192.436,116.801 192.782 M255.026 194.277 C 255.026 194.762,255.158 195.158,255.319 195.158 C 255.481 195.158,255.613 194.762,255.613 194.277 C 255.613 193.793,255.481 193.397,255.319 193.397 C 255.158 193.397,255.026 193.793,255.026 194.277 M210.597 195.457 C 210.042 196.843,210.033 196.919,210.418 196.919 C 210.580 196.919,210.685 196.820,210.651 196.698 C 210.618 196.577,210.816 196.056,211.092 195.539 C 211.662 194.469,211.698 194.277,211.330 194.277 C 211.187 194.277,210.856 194.808,210.597 195.457 M86.403 195.891 C 86.534 196.214,86.707 196.709,86.788 196.992 C 86.869 197.274,87.061 197.506,87.215 197.506 C 87.593 197.506,87.193 196.321,86.625 195.758 C 86.210 195.348,86.189 195.361,86.403 195.891 M255.319 197.065 C 255.319 197.469,255.451 197.799,255.613 197.799 C 255.774 197.799,255.906 197.469,255.906 197.065 C 255.906 196.662,255.774 196.332,255.613 196.332 C 255.451 196.332,255.319 196.662,255.319 197.065 M174.766 197.621 C 174.345 198.042,173.875 198.386,173.721 198.386 C 173.567 198.386,173.441 198.518,173.441 198.679 C 173.441 199.170,173.854 199.014,174.919 198.121 C 175.478 197.653,175.844 197.176,175.733 197.063 C 175.622 196.949,175.187 197.200,174.766 197.621 M283.492 197.182 C 283.492 198.274,287.858 201.586,288.846 201.243 C 289.049 201.173,288.772 201.016,288.230 200.894 C 287.198 200.663,283.697 197.593,283.967 197.157 C 284.048 197.026,283.974 196.919,283.803 196.919 C 283.632 196.919,283.492 197.037,283.492 197.182 M122.084 198.027 C 122.084 198.388,124.225 199.929,125.165 200.245 L 125.752 200.442 125.165 200.011 C 124.842 199.774,124.419 199.443,124.224 199.276 C 124.029 199.109,123.773 198.973,123.656 198.973 C 123.538 198.973,123.136 198.686,122.763 198.335 C 122.389 197.984,122.084 197.845,122.084 198.027 M87.454 198.526 C 87.454 198.902,89.074 201.908,89.276 201.908 C 89.620 201.908,89.581 201.776,88.714 200.007 C 88.049 198.650,87.454 197.952,87.454 198.526 M255.613 199.266 C 255.613 199.589,255.745 199.853,255.906 199.853 C 256.067 199.853,256.200 199.589,256.200 199.266 C 256.200 198.944,256.067 198.679,255.906 198.679 C 255.745 198.679,255.613 198.944,255.613 199.266 M207.758 201.366 C 207.402 202.067,206.964 202.738,206.784 202.857 C 206.547 203.013,206.551 203.074,206.798 203.077 C 207.157 203.082,208.761 200.446,208.535 200.220 C 208.464 200.149,208.114 200.664,207.758 201.366 M169.332 201.027 C 168.767 201.336,168.408 201.595,168.535 201.602 C 168.897 201.621,170.800 200.781,170.800 200.602 C 170.800 200.327,170.400 200.443,169.332 201.027 M255.906 201.027 C 255.906 201.350,256.038 201.614,256.200 201.614 C 256.361 201.614,256.493 201.350,256.493 201.027 C 256.493 200.704,256.361 200.440,256.200 200.440 C 256.038 200.440,255.906 200.704,255.906 201.027 M128.173 201.650 C 128.536 201.841,128.833 202.109,128.833 202.246 C 128.833 202.383,129.032 202.494,129.274 202.494 C 129.882 202.494,129.828 202.009,129.200 201.828 C 128.918 201.747,128.423 201.596,128.100 201.492 C 127.654 201.348,127.671 201.386,128.173 201.650 M306.456 201.830 C 307.223 201.890,308.478 201.890,309.244 201.830 C 310.011 201.769,309.384 201.720,307.850 201.720 C 306.317 201.720,305.690 201.769,306.456 201.830 M315.481 202.218 C 315.481 202.551,315.613 202.741,315.774 202.641 C 315.935 202.541,316.067 202.270,316.067 202.037 C 316.067 201.804,315.935 201.614,315.774 201.614 C 315.613 201.614,315.481 201.886,315.481 202.218 M166.700 202.190 C 166.462 202.340,166.344 202.539,166.438 202.632 C 166.669 202.863,167.572 202.495,167.572 202.170 C 167.572 201.835,167.248 201.843,166.700 202.190 M292.296 202.201 C 292.296 202.383,293.910 202.494,296.552 202.494 C 299.193 202.494,300.807 202.383,300.807 202.201 C 300.807 202.019,299.193 201.908,296.552 201.908 C 293.910 201.908,292.296 202.019,292.296 202.201 M130.007 202.463 C 130.007 202.789,130.910 203.157,131.141 202.926 C 131.235 202.832,131.117 202.633,130.879 202.483 C 130.330 202.136,130.007 202.129,130.007 202.463 M131.475 203.044 C 131.475 203.353,132.932 203.776,133.172 203.536 C 133.397 203.311,133.212 203.194,132.282 202.970 C 131.838 202.864,131.475 202.897,131.475 203.044 M164.498 203.069 C 164.403 203.223,164.131 203.275,163.894 203.184 C 163.657 203.093,163.463 203.180,163.463 203.378 C 163.463 203.607,163.702 203.673,164.123 203.560 C 164.486 203.463,164.883 203.381,165.004 203.379 C 165.328 203.373,165.272 202.788,164.948 202.788 C 164.796 202.788,164.593 202.914,164.498 203.069 M90.913 204.827 C 91.380 205.706,91.915 206.476,92.102 206.538 C 92.677 206.730,92.484 206.192,91.636 205.240 C 91.192 204.742,90.657 204.085,90.446 203.781 C 90.236 203.477,90.446 203.947,90.913 204.827 M205.615 204.542 C 204.763 205.829,204.703 206.016,205.136 206.016 C 205.297 206.016,205.429 205.818,205.429 205.576 C 205.429 205.334,205.533 205.136,205.659 205.136 C 205.786 205.136,206.124 204.740,206.410 204.255 C 207.183 202.946,206.510 203.189,205.615 204.542 M137.767 204.576 C 137.677 204.723,137.941 204.842,138.354 204.842 C 139.253 204.842,139.326 204.675,138.518 204.464 C 138.196 204.379,137.858 204.430,137.767 204.576 M155.613 205.045 C 155.895 205.118,156.357 205.118,156.640 205.045 C 156.922 204.971,156.691 204.910,156.126 204.910 C 155.561 204.910,155.330 204.971,155.613 205.045 M315.803 206.400 C 315.785 207.469,315.884 208.037,316.067 207.924 C 316.407 207.714,316.407 206.490,316.067 205.429 C 315.889 204.871,315.826 205.104,315.803 206.400 M143.439 205.348 C 143.966 205.414,144.759 205.412,145.200 205.345 C 145.641 205.278,145.209 205.225,144.241 205.227 C 143.272 205.228,142.911 205.283,143.439 205.348 M150.764 205.348 C 151.285 205.412,152.209 205.413,152.818 205.350 C 153.427 205.286,153.001 205.233,151.871 205.232 C 150.741 205.231,150.243 205.283,150.764 205.348 M94.371 209.831 C 95.284 210.961,96.153 211.886,96.303 211.886 C 96.452 211.886,96.296 211.588,95.955 211.225 C 95.615 210.862,94.856 209.938,94.269 209.171 C 93.683 208.404,93.092 207.777,92.957 207.777 C 92.822 207.777,93.458 208.701,94.371 209.831 M201.800 209.559 C 201.025 210.169,200.789 210.712,201.301 210.712 C 201.451 210.712,201.856 210.315,202.201 209.831 C 202.940 208.793,202.851 208.733,201.800 209.559 M316.088 211.665 C 316.077 212.609,316.197 213.353,316.361 213.353 C 316.715 213.353,316.715 211.388,316.361 210.565 C 316.180 210.143,316.103 210.451,316.088 211.665 M198.606 213.237 C 196.815 214.970,196.350 215.644,197.770 214.450 C 198.612 213.741,200.597 211.587,200.397 211.598 C 200.340 211.601,199.534 212.339,198.606 213.237 M260.362 214.380 C 260.545 214.784,260.807 215.114,260.942 215.114 C 261.078 215.114,261.189 215.304,261.189 215.537 C 261.189 215.979,261.716 216.445,261.951 216.210 C 262.132 216.029,260.563 213.646,260.262 213.646 C 260.133 213.646,260.178 213.977,260.362 214.380 M98.899 214.424 C 98.899 214.586,99.230 215.028,99.633 215.407 C 100.037 215.786,100.367 215.964,100.367 215.803 C 100.367 215.642,100.037 215.199,99.633 214.820 C 99.230 214.441,98.899 214.263,98.899 214.424 M316.365 216.948 C 316.363 217.880,316.492 218.635,316.654 218.635 C 317.030 218.635,317.030 216.282,316.654 215.701 C 316.453 215.388,316.369 215.750,316.365 216.948 M194.991 216.506 L 194.464 217.311 195.162 216.847 C 195.907 216.352,196.272 215.701,195.803 215.701 C 195.647 215.701,195.281 216.063,194.991 216.506 M100.954 216.206 C 100.954 216.575,101.793 217.307,101.990 217.110 C 102.068 217.032,101.866 216.729,101.543 216.436 C 101.219 216.143,100.954 216.040,100.954 216.206 M262.302 217.021 C 262.686 217.764,264.363 219.374,264.554 219.183 C 264.633 219.104,264.091 218.453,263.348 217.737 C 262.606 217.020,262.135 216.698,262.302 217.021 M102.583 217.698 C 103.645 218.599,105.062 219.501,105.062 219.276 C 105.062 219.002,102.901 217.461,102.515 217.461 C 102.399 217.461,102.429 217.568,102.583 217.698 M191.988 218.694 C 191.616 219.066,191.506 219.809,191.824 219.809 C 192.052 219.809,192.788 218.869,192.801 218.562 C 192.815 218.228,192.384 218.298,191.988 218.694 M105.356 219.510 C 105.356 219.674,105.554 219.809,105.796 219.809 C 106.038 219.809,106.236 219.920,106.236 220.056 C 106.236 220.191,106.566 220.452,106.970 220.636 C 108.195 221.194,107.804 220.459,106.530 219.809 C 105.884 219.480,105.356 219.345,105.356 219.510 M265.297 219.818 C 265.297 219.985,265.528 220.206,265.811 220.311 C 266.093 220.415,266.390 220.587,266.471 220.694 C 266.707 221.005,269.285 222.452,269.578 222.438 C 269.725 222.430,269.351 222.163,268.745 221.844 C 268.140 221.524,267.645 221.112,267.645 220.927 C 267.645 220.743,267.565 220.672,267.467 220.770 C 267.369 220.868,266.941 220.626,266.516 220.232 C 265.688 219.465,265.297 219.332,265.297 219.818 M191.930 220.228 C 191.930 220.298,192.100 220.529,192.309 220.742 C 192.518 220.955,193.193 221.963,193.808 222.981 C 194.424 224.000,194.992 224.768,195.071 224.689 C 195.150 224.611,194.824 223.975,194.347 223.278 C 193.870 222.581,193.259 221.581,192.990 221.056 C 192.585 220.266,191.930 219.754,191.930 220.228 M316.659 221.790 C 316.655 222.852,316.565 223.037,316.050 223.037 C 315.718 223.037,315.524 223.164,315.620 223.320 C 315.730 223.497,316.065 223.479,316.518 223.273 C 317.286 222.923,317.492 221.825,316.948 220.983 C 316.740 220.661,316.662 220.877,316.659 221.790 M111.519 222.843 C 111.922 223.071,112.583 223.345,112.986 223.452 L 113.720 223.646 112.986 223.231 C 112.583 223.004,111.922 222.730,111.519 222.623 L 110.785 222.429 111.519 222.843 M313.720 223.624 C 313.720 223.992,314.031 223.992,314.600 223.624 C 314.956 223.394,314.914 223.339,314.380 223.335 C 314.017 223.333,313.720 223.463,313.720 223.624 M311.900 223.977 C 312.174 224.250,312.331 224.250,312.605 223.977 C 312.878 223.703,312.800 223.624,312.252 223.624 C 311.705 223.624,311.626 223.703,311.900 223.977 M274.395 224.211 C 274.395 224.407,274.577 224.498,274.799 224.412 C 275.022 224.327,275.350 224.403,275.528 224.582 C 275.706 224.760,275.943 224.816,276.053 224.705 C 276.327 224.431,276.146 224.294,275.201 224.057 C 274.653 223.919,274.395 223.968,274.395 224.211 M309.905 224.211 C 309.905 224.373,310.095 224.505,310.328 224.505 C 310.560 224.505,310.832 224.373,310.932 224.211 C 311.032 224.050,310.841 223.918,310.509 223.918 C 310.177 223.918,309.905 224.050,309.905 224.211 M115.456 224.431 C 115.577 224.552,115.764 224.663,115.872 224.676 C 115.979 224.690,116.439 224.855,116.894 225.043 C 117.879 225.451,117.975 225.460,117.975 225.138 C 117.975 225.002,117.465 224.738,116.840 224.551 C 115.522 224.156,115.149 224.124,115.456 224.431 M308.085 224.563 C 308.359 224.837,308.516 224.837,308.789 224.563 C 309.063 224.290,308.985 224.211,308.437 224.211 C 307.889 224.211,307.811 224.290,308.085 224.563 M276.684 224.857 C 276.958 225.131,277.114 225.131,277.388 224.857 C 277.662 224.583,277.584 224.505,277.036 224.505 C 276.488 224.505,276.410 224.583,276.684 224.857 M305.796 224.798 C 305.796 224.960,306.060 225.092,306.383 225.092 C 306.706 225.092,306.970 224.960,306.970 224.798 C 306.970 224.637,306.706 224.505,306.383 224.505 C 306.060 224.505,305.796 224.637,305.796 224.798 M277.916 225.092 C 277.916 225.253,278.114 225.385,278.357 225.385 C 278.599 225.385,278.797 225.253,278.797 225.092 C 278.797 224.930,278.599 224.798,278.357 224.798 C 278.114 224.798,277.916 224.930,277.916 225.092 M303.742 225.092 C 303.742 225.253,304.006 225.385,304.329 225.385 C 304.652 225.385,304.916 225.253,304.916 225.092 C 304.916 224.930,304.652 224.798,304.329 224.798 C 304.006 224.798,303.742 224.930,303.742 225.092 M279.677 225.385 C 279.677 225.547,279.941 225.679,280.264 225.679 C 280.587 225.679,280.851 225.547,280.851 225.385 C 280.851 225.224,280.587 225.092,280.264 225.092 C 279.941 225.092,279.677 225.224,279.677 225.385 M301.101 225.385 C 301.101 225.547,301.431 225.679,301.834 225.679 C 302.238 225.679,302.568 225.547,302.568 225.385 C 302.568 225.224,302.238 225.092,301.834 225.092 C 301.431 225.092,301.101 225.224,301.101 225.385 M281.438 225.679 C 281.438 225.840,281.834 225.972,282.318 225.972 C 282.803 225.972,283.199 225.840,283.199 225.679 C 283.199 225.517,282.803 225.385,282.318 225.385 C 281.834 225.385,281.438 225.517,281.438 225.679 M297.872 225.679 C 297.872 225.840,298.335 225.972,298.899 225.972 C 299.464 225.972,299.927 225.840,299.927 225.679 C 299.927 225.517,299.464 225.385,298.899 225.385 C 298.335 225.385,297.872 225.517,297.872 225.679 M195.461 225.874 C 195.478 226.338,196.326 227.249,196.540 227.035 C 196.658 226.917,196.582 226.714,196.371 226.584 C 196.161 226.453,196.009 226.233,196.035 226.093 C 196.061 225.954,195.940 225.793,195.767 225.735 C 195.593 225.677,195.455 225.740,195.461 225.874 M284.740 226.182 C 285.183 226.250,285.910 226.250,286.354 226.182 C 286.798 226.115,286.434 226.060,285.547 226.060 C 284.659 226.060,284.296 226.115,284.740 226.182 M293.989 226.185 C 294.517 226.250,295.309 226.249,295.750 226.182 C 296.191 226.115,295.759 226.061,294.791 226.063 C 293.822 226.065,293.462 226.119,293.989 226.185 M196.625 227.690 C 196.625 227.828,196.976 228.319,197.405 228.782 C 198.206 229.647,198.212 229.622,197.522 228.247 C 197.136 227.476,196.625 227.159,196.625 227.690 M130.301 228.139 C 130.301 228.399,131.488 228.536,131.638 228.292 C 131.729 228.146,131.465 228.026,131.052 228.026 C 130.639 228.026,130.301 228.077,130.301 228.139 M163.305 228.302 C 163.414 228.479,163.627 228.546,163.779 228.453 C 164.094 228.258,164.930 229.000,164.930 229.473 C 164.930 229.646,165.070 229.787,165.241 229.787 C 165.412 229.787,165.470 229.919,165.371 230.081 C 165.271 230.242,165.329 230.374,165.500 230.374 C 165.671 230.374,165.811 230.572,165.811 230.814 C 165.811 231.056,165.956 231.255,166.133 231.255 C 166.882 231.255,164.729 228.175,163.913 228.077 C 163.386 228.015,163.176 228.093,163.305 228.302 M132.918 228.641 C 133.389 228.829,133.731 228.823,133.931 228.622 C 134.138 228.415,133.916 228.326,133.221 228.338 C 132.269 228.356,132.251 228.374,132.918 228.641 M161.245 228.586 C 161.335 228.732,161.673 228.783,161.996 228.698 C 162.803 228.487,162.731 228.320,161.832 228.320 C 161.418 228.320,161.155 228.440,161.245 228.586 M135.976 228.963 C 136.567 229.178,136.903 229.172,137.135 228.940 C 137.375 228.700,137.153 228.620,136.302 228.637 C 135.156 228.659,135.152 228.663,135.976 228.963 M158.390 228.940 C 158.621 229.172,158.958 229.178,159.549 228.963 C 160.372 228.663,160.369 228.659,159.222 228.637 C 158.371 228.620,158.150 228.700,158.390 228.940 M139.398 229.200 C 139.976 229.573,141.369 229.573,141.599 229.200 C 141.711 229.020,141.237 228.909,140.369 228.911 C 139.350 228.915,139.080 228.995,139.398 229.200 M154.365 229.200 C 154.365 229.575,156.133 229.575,156.713 229.200 C 157.032 228.995,156.768 228.915,155.759 228.911 C 154.993 228.909,154.365 229.039,154.365 229.200 M147.019 229.487 C 148.224 229.597,149.610 229.591,150.100 229.474 C 150.642 229.344,149.786 229.265,147.909 229.273 C 144.831 229.286,144.830 229.287,147.019 229.487 M198.679 230.810 C 198.679 231.108,200.515 233.919,200.632 233.801 C 200.701 233.733,200.335 233.000,199.821 232.173 C 198.953 230.777,198.679 230.450,198.679 230.810 M167.568 233.749 C 168.630 235.672,168.961 236.126,169.159 235.928 C 169.275 235.812,167.185 232.506,166.763 232.135 C 166.671 232.054,167.033 232.781,167.568 233.749 M201.027 234.776 C 201.200 235.099,201.470 235.363,201.627 235.363 C 201.785 235.363,201.749 235.101,201.546 234.776 C 201.344 234.453,201.074 234.189,200.946 234.189 C 200.818 234.189,200.854 234.453,201.027 234.776 M201.614 235.926 C 201.614 236.101,201.734 236.244,201.880 236.244 C 202.026 236.244,202.494 236.838,202.919 237.564 C 203.345 238.291,203.764 238.885,203.852 238.885 C 203.939 238.885,203.612 238.194,203.124 237.350 C 202.274 235.877,201.614 235.255,201.614 235.926 M169.332 236.757 C 169.505 237.040,169.904 237.667,170.219 238.151 C 170.535 238.635,170.886 239.230,171.000 239.472 C 171.249 240.001,171.974 240.765,171.974 240.498 C 171.974 240.093,169.544 236.244,169.289 236.244 C 169.140 236.244,169.159 236.475,169.332 236.757 M204.842 240.780 C 204.842 241.153,206.499 243.590,206.842 243.722 C 207.258 243.882,206.089 241.755,205.662 241.575 C 205.534 241.521,205.429 241.290,205.429 241.061 C 205.429 240.833,205.297 240.646,205.136 240.646 C 204.974 240.646,204.842 240.706,204.842 240.780 M173.207 243.154 C 173.388 243.550,173.646 243.874,173.782 243.874 C 173.917 243.874,174.028 244.072,174.028 244.314 C 174.028 244.556,174.168 244.754,174.339 244.754 C 174.510 244.754,174.568 244.886,174.468 245.048 C 174.368 245.209,174.427 245.341,174.598 245.341 C 174.768 245.341,174.908 245.539,174.908 245.781 C 174.908 246.023,175.049 246.222,175.222 246.222 C 175.614 246.222,173.739 242.764,173.243 242.574 C 172.961 242.466,172.953 242.596,173.207 243.154 M207.541 244.901 C 208.377 246.523,210.246 249.450,210.446 249.450 C 210.585 249.450,210.033 248.428,209.217 247.179 C 207.878 245.126,207.141 244.126,207.541 244.901 M175.495 246.582 C 175.495 246.854,177.594 250.330,177.759 250.330 C 177.836 250.330,177.476 249.571,176.958 248.643 C 176.029 246.975,175.495 246.224,175.495 246.582 M210.418 249.849 C 210.418 250.184,211.664 252.091,211.883 252.091 C 212.843 252.091,212.282 253.037,210.995 253.591 C 209.783 254.112,209.076 254.732,209.694 254.732 C 210.010 254.732,212.766 253.249,212.766 253.080 C 212.766 252.712,211.473 250.624,211.245 250.624 C 211.113 250.624,211.038 250.475,211.079 250.293 C 211.119 250.112,210.987 249.903,210.785 249.829 C 210.583 249.755,210.418 249.764,210.418 249.849 M178.552 251.871 C 178.819 252.234,179.115 252.762,179.209 253.045 C 179.302 253.327,179.503 253.558,179.655 253.558 C 179.807 253.558,179.850 253.690,179.751 253.852 C 179.651 254.013,179.709 254.145,179.880 254.145 C 180.051 254.145,180.191 254.343,180.191 254.585 C 180.191 254.828,180.323 255.026,180.484 255.026 C 180.646 255.026,180.778 254.969,180.778 254.900 C 180.778 254.521,178.608 251.211,178.360 251.211 C 178.198 251.211,178.284 251.508,178.552 251.871 M208.657 254.712 C 208.657 254.863,208.383 255.073,208.048 255.179 C 207.713 255.286,207.498 255.432,207.570 255.504 C 207.763 255.697,209.244 254.973,209.244 254.685 C 209.244 254.550,209.112 254.439,208.951 254.439 C 208.789 254.439,208.657 254.562,208.657 254.712 M206.016 256.053 C 205.613 256.283,205.415 256.472,205.576 256.472 C 205.737 256.472,206.200 256.283,206.603 256.053 C 207.007 255.822,207.205 255.633,207.043 255.633 C 206.882 255.633,206.420 255.822,206.016 256.053 M181.593 256.860 C 181.907 257.384,182.408 258.243,182.708 258.767 C 183.007 259.292,183.356 259.721,183.482 259.721 C 183.884 259.721,183.731 259.175,183.177 258.632 C 182.882 258.343,182.343 257.612,181.979 257.007 C 181.615 256.401,181.251 255.906,181.170 255.906 C 181.089 255.906,181.280 256.335,181.593 256.860 M203.742 257.005 C 203.217 257.266,202.788 257.591,202.788 257.728 C 202.788 257.959,203.837 257.486,204.842 256.802 C 205.517 256.342,204.812 256.473,203.742 257.005 M200.456 258.426 C 198.683 259.231,198.506 259.352,198.749 259.595 C 198.841 259.687,199.490 259.462,200.192 259.095 C 200.893 258.729,201.566 258.455,201.687 258.488 C 201.809 258.521,201.908 258.407,201.908 258.237 C 201.908 258.066,202.040 258.007,202.201 258.107 C 202.362 258.207,202.494 258.149,202.494 257.978 C 202.494 257.550,202.287 257.595,200.456 258.426 M183.827 260.675 C 184.092 261.038,184.397 261.533,184.506 261.775 C 184.798 262.422,186.354 264.541,186.354 264.292 C 186.354 263.847,183.925 260.015,183.643 260.015 C 183.480 260.015,183.563 260.312,183.827 260.675 M195.158 261.042 C 193.441 261.961,193.774 261.970,195.780 261.059 C 196.649 260.665,197.161 260.340,196.919 260.338 C 196.676 260.336,195.884 260.653,195.158 261.042 M191.269 262.703 C 190.503 263.041,189.875 263.433,189.875 263.574 C 189.875 263.941,190.061 263.899,191.281 263.254 C 193.674 261.989,193.666 261.646,191.269 262.703 M187.768 264.430 C 187.712 264.598,187.380 264.758,187.030 264.784 C 186.680 264.810,186.454 264.929,186.527 265.047 C 186.702 265.329,188.408 264.731,188.408 264.388 C 188.408 264.021,187.893 264.055,187.768 264.430 " stroke="none" fill="#c4f0ca" fill-rule="evenodd"></path></g></svg>