<?xml version="1.0" standalone="no"?>
<!DOCTYPE svg PUBLIC "-//W3C//DTD SVG 20010904//EN"
 "http://www.w3.org/TR/2001/REC-SVG-20010904/DTD/svg10.dtd">
<svg version="1.0" xmlns="http://www.w3.org/2000/svg"
 width="2185.000000pt" height="2185.000000pt" viewBox="0 0 2185.000000 2185.000000"
 preserveAspectRatio="xMidYMid meet">
<metadata>
Created by potrace 1.15, written by Peter Selinger 2001-2017
</metadata>
<g transform="translate(0.000000,2185.000000) scale(0.100000,-0.100000)"
fill="#000000" stroke="none">
<path style = "fill : #FFFFFF" d="M10435 21404 c-27 -2 -124 -8 -215 -14 -1341 -87 -2694 -453 -3920
-1061 -2861 -1418 -4935 -4059 -5619 -7154 -103 -467 -172 -935 -218 -1475
-22 -262 -25 -1251 -5 -1510 29 -368 65 -671 118 -990 531 -3217 2551 -6012
5462 -7559 1173 -624 2501 -1027 3822 -1160 411 -42 513 -46 1095 -46 597 1
728 7 1160 55 1855 209 3609 907 5104 2030 2351 1767 3855 4416 4150 7310 41
405 46 513 46 1085 0 555 -4 664 -41 1030 -337 3391 -2291 6399 -5260 8098
-1140 653 -2394 1083 -3689 1267 -532 75 -778 92 -1405 95 -294 1 -557 1 -585
-1z m1235 -388 c614 -51 1139 -136 1701 -277 2428 -607 4561 -2111 5956 -4199
847 -1268 1380 -2659 1602 -4180 107 -732 129 -1585 61 -2345 -246 -2728
-1583 -5230 -3715 -6954 -2216 -1792 -5049 -2564 -7870 -2145 -2571 382 -4897
1745 -6501 3809 -1167 1500 -1885 3295 -2073 5180 -62 613 -67 1282 -15 1880
128 1488 569 2893 1311 4183 1173 2039 3044 3622 5246 4441 917 341 1902 552
2847 611 96 6 195 12 220 14 128 10 1049 -3 1230 -18z"/>
<path style = "fill : #FFFFFF" d="M10460 20739 c-1971 -107 -3811 -774 -5375 -1949 -891 -670 -1648
-1470 -2270 -2400 -835 -1248 -1372 -2685 -1559 -4170 -63 -498 -80 -820 -73
-1393 5 -460 17 -644 63 -1037 332 -2815 1901 -5368 4274 -6956 2023 -1353
4433 -1896 6869 -1549 1676 240 3287 932 4630 1989 1511 1189 2638 2790 3241
4606 235 706 387 1433 454 2170 55 597 55 1242 0 1835 -259 2815 -1733 5378
-4051 7042 -836 600 -1803 1081 -2783 1384 -733 227 -1454 361 -2255 419 -198
15 -956 21 -1165 9z m1090 -499 c1487 -92 3011 -602 4355 -1458 556 -354 1018
-724 1465 -1171 359 -360 655 -719 886 -1078 l57 -88 -44 37 c-650 551 -1358
862 -2108 929 -174 15 -624 6 -781 -16 -706 -98 -1386 -361 -2089 -807 -558
-354 -1156 -865 -1557 -1331 -167 -194 -235 -302 -288 -462 -84 -252 -79 -598
13 -923 85 -295 245 -618 364 -732 210 -203 977 -343 1223 -225 87 43 303 272
724 769 385 456 556 640 760 820 442 390 860 602 1349 685 777 132 1721 -91
2856 -674 201 -103 539 -289 625 -344 l35 -23 -50 7 c-27 3 -174 28 -325 55
-472 84 -556 94 -810 95 -304 0 -407 -24 -555 -130 -204 -145 -277 -344 -230
-630 28 -174 83 -340 268 -810 172 -437 280 -768 345 -1055 175 -772 137
-1504 -119 -2271 -89 -264 -216 -562 -346 -807 -36 -68 -63 -125 -61 -128 3
-2 133 54 289 124 427 194 724 307 954 364 122 30 297 32 372 4 86 -32 143
-82 183 -160 30 -59 35 -78 38 -159 9 -225 -87 -443 -296 -669 -31 -33 -147
-140 -257 -236 -285 -251 -423 -383 -609 -582 -660 -707 -1177 -1443 -1327
-1890 -39 -117 -46 -243 -16 -298 35 -64 147 -89 265 -61 113 28 285 127 452
263 96 77 342 318 476 463 514 562 1196 1516 1562 2188 21 37 12 6 -37 -132
-257 -727 -658 -1465 -1284 -2361 -454 -650 -820 -972 -1312 -1156 -400 -149
-670 -139 -952 37 -179 111 -310 345 -333 593 -31 345 132 804 462 1297 382
571 951 1179 1460 1558 240 179 493 346 908 598 412 251 490 313 490 390 0 34
-5 44 -37 68 -33 25 -44 28 -112 26 -90 -1 -199 -31 -386 -106 -233 -92 -759
-361 -1010 -516 -546 -336 -1183 -940 -1645 -1561 -558 -749 -829 -1445 -745
-1912 93 -522 575 -949 1150 -1018 122 -15 284 -4 390 26 24 7 16 -1 -153
-138 -1164 -947 -2567 -1554 -4132 -1788 -496 -74 -1127 -118 -1528 -106
-1980 59 -3717 637 -5151 1714 -151 114 -402 314 -398 318 1 1 31 -4 66 -11
338 -71 733 35 1045 279 240 188 400 440 452 712 24 129 15 360 -20 509 -82
348 -246 702 -513 1109 -365 556 -878 1117 -1413 1545 -312 249 -591 419
-1100 670 -379 187 -610 272 -751 274 -68 2 -79 -1 -112 -26 -32 -24 -37 -34
-37 -68 0 -75 82 -141 465 -374 743 -451 1088 -704 1464 -1070 570 -556 1052
-1204 1255 -1687 107 -255 150 -435 150 -633 0 -158 -16 -229 -84 -370 -84
-172 -176 -262 -355 -350 -265 -129 -491 -126 -860 11 -486 181 -846 496
-1299 1137 -535 758 -936 1464 -1193 2102 -46 115 -153 410 -153 423 0 4 26
-40 59 -98 310 -557 842 -1313 1345 -1910 146 -173 531 -564 646 -657 170
-137 339 -235 452 -262 118 -28 230 -3 265 61 31 56 23 181 -17 303 -111 331
-476 895 -937 1447 -316 378 -606 675 -963 989 -129 113 -260 233 -292 267
-209 227 -305 443 -296 669 3 81 8 100 38 159 40 78 97 128 183 160 81 30 250
26 387 -8 235 -60 507 -164 939 -360 156 -70 286 -126 289 -124 2 3 -25 60
-61 128 -36 68 -93 184 -127 258 -447 975 -554 1868 -338 2820 68 300 169 607
369 1118 140 355 175 456 215 611 94 365 33 600 -201 766 -148 106 -251 130
-555 130 -254 -1 -338 -11 -810 -95 -151 -27 -297 -51 -325 -55 l-50 -6 70 42
c542 324 1190 628 1705 799 491 163 887 234 1300 233 643 0 1152 -187 1685
-617 158 -128 482 -457 690 -701 99 -116 255 -298 346 -405 211 -249 394 -446
487 -525 102 -88 147 -100 362 -100 177 1 310 17 477 61 196 51 372 126 454
193 78 64 216 308 304 535 144 372 181 756 104 1059 -62 243 -183 417 -554
796 -369 377 -755 697 -1178 979 -754 503 -1477 795 -2227 898 -158 21 -621
30 -787 15 -624 -59 -1183 -267 -1745 -650 -115 -78 -194 -138 -371 -283 l-39
-31 47 74 c336 526 863 1107 1440 1589 1455 1215 3435 2015 5270 2129 192 12
1054 12 1245 1z"/>
<path style = "fill : #FFFFFF" d="M6562 12999 c-162 -28 -285 -155 -328 -335 -23 -98 -15 -254 18 -356
23 -69 72 -166 114 -225 l16 -23 -52 16 c-28 8 -111 37 -184 64 -253 93 -415
124 -651 123 -241 -1 -427 -35 -729 -133 -186 -61 -282 -103 -377 -165 -219
-146 -319 -404 -239 -619 46 -122 185 -293 359 -440 237 -201 348 -269 616
-376 369 -149 489 -248 623 -516 126 -251 226 -569 266 -844 8 -58 29 -260 46
-450 71 -800 136 -1140 282 -1475 75 -175 257 -461 278 -439 5 5 14 47 20 94
20 142 4 333 -75 870 -76 521 -101 772 -115 1150 -11 281 -19 370 -51 515 -45
212 -152 471 -262 634 -32 46 -55 87 -52 90 3 2 96 10 206 16 192 10 202 11
220 33 103 128 -3 406 -216 567 -134 100 -260 131 -588 145 -128 6 -252 13
-277 16 -184 24 -517 162 -653 269 -111 88 -188 223 -191 336 -1 46 4 61 26
91 66 86 300 165 603 202 129 16 216 8 349 -30 123 -34 208 -82 321 -178 203
-172 283 -210 445 -211 115 0 161 13 242 68 111 76 195 199 317 463 101 220
151 384 171 567 27 240 -44 409 -198 468 -65 25 -213 34 -300 18z"/>
<path style = "fill : #FFFFFF" d="M15114 13000 c-107 -22 -195 -94 -235 -196 -20 -52 -23 -76 -24 -199
0 -162 15 -248 76 -430 48 -142 164 -388 238 -502 121 -189 268 -275 446 -260
132 12 223 57 358 177 147 130 222 175 364 215 132 37 219 45 348 29 361 -44
604 -140 631 -250 9 -36 -12 -129 -45 -199 -53 -113 -158 -205 -328 -289 -101
-50 -279 -118 -370 -141 -72 -18 -259 -35 -393 -35 -291 -1 -472 -56 -611
-187 -80 -76 -159 -188 -185 -265 -39 -111 -11 -270 49 -282 12 -3 87 -8 167
-11 80 -3 163 -8 186 -11 l41 -6 -45 -66 c-96 -144 -190 -359 -242 -556 -48
-180 -60 -277 -70 -536 -18 -439 -38 -648 -124 -1255 -30 -209 -60 -433 -66
-498 -13 -127 -9 -387 7 -426 9 -23 10 -23 45 20 126 154 251 411 328 673 83
287 121 539 180 1196 47 524 70 657 161 934 91 273 209 505 313 614 104 109
204 167 489 283 206 84 271 119 391 208 299 222 492 430 557 599 61 163 14
370 -118 512 -102 111 -224 178 -473 262 -301 101 -512 140 -760 140 -244 1
-376 -25 -663 -131 -74 -27 -151 -54 -171 -59 l-36 -10 31 44 c80 117 122 257
122 409 1 266 -124 445 -337 484 -68 12 -171 13 -232 1z"/>
<path style = "fill : #FFFFFF" d="M7848 11700 c-82 -10 -212 -43 -288 -74 -315 -128 -500 -573 -500
-1201 0 -743 145 -1538 384 -2110 35 -82 89 -215 122 -295 112 -273 366 -771
587 -1150 159 -272 443 -717 452 -708 2 2 0 48 -5 103 -40 439 44 932 232
1375 63 149 177 370 290 566 261 449 317 557 401 769 198 499 275 1011 192
1280 l-15 50 -117 55 c-207 97 -405 240 -554 398 -76 81 -167 211 -359 513
-81 127 -193 248 -288 310 -87 57 -227 106 -343 119 -92 11 -95 11 -191 0z
m195 -564 c244 -117 508 -446 627 -781 65 -185 92 -385 71 -525 -17 -107 -18
-110 -52 -110 -43 0 -98 61 -223 249 -58 87 -122 173 -143 190 -72 60 -145 86
-411 150 -137 33 -193 62 -262 137 -50 55 -87 132 -102 214 -25 132 33 297
145 417 80 85 121 105 208 100 50 -3 84 -13 142 -41z"/>
<path style = "fill : #FFFFFF" d="M13768 11700 c-86 -11 -221 -54 -292 -94 -123 -70 -224 -175 -339
-354 -262 -408 -313 -476 -464 -608 -118 -103 -293 -217 -436 -284 -115 -54
-117 -56 -131 -100 -59 -176 -42 -488 45 -832 72 -288 188 -591 305 -799 26
-46 75 -133 109 -194 34 -60 103 -182 155 -270 285 -490 435 -907 491 -1365
15 -117 18 -468 6 -573 -5 -44 -4 -66 2 -63 5 4 65 93 134 199 397 615 726
1227 933 1737 34 85 83 203 108 261 219 522 366 1353 366 2072 0 366 -74 703
-202 922 -53 90 -177 213 -248 247 -167 79 -379 117 -542 98z m340 -540 c57
-26 143 -118 186 -200 110 -209 80 -405 -84 -553 -62 -56 -110 -74 -310 -121
-156 -36 -251 -73 -316 -122 -20 -15 -86 -102 -147 -193 -133 -198 -181 -251
-225 -251 -36 0 -37 2 -52 125 -42 344 141 795 445 1100 196 197 375 273 503
215z"/>
<path style = "fill : #FFFFFF" d="M10885 9133 c-169 -17 -295 -85 -459 -246 -94 -94 -439 -481 -567
-637 -500 -612 -820 -1216 -880 -1666 -14 -110 -6 -317 16 -399 26 -93 86
-213 144 -285 103 -129 321 -293 505 -381 174 -82 331 -123 526 -135 193 -12
527 41 582 93 109 103 56 459 -92 626 -46 52 -139 121 -210 157 -75 38 -148
60 -337 100 -194 41 -268 70 -304 121 -28 40 -55 108 -63 159 -17 114 82 287
192 338 51 23 63 24 156 19 129 -7 337 -62 463 -122 111 -52 218 -125 304
-206 35 -32 65 -59 67 -59 2 0 15 14 30 32 38 45 161 141 242 188 100 58 199
95 366 136 127 31 160 36 235 32 75 -3 94 -8 135 -34 85 -52 164 -194 164
-294 0 -65 -34 -153 -77 -201 -44 -48 -101 -70 -290 -109 -162 -34 -210 -47
-293 -80 -121 -48 -271 -175 -320 -270 -38 -74 -70 -179 -82 -271 -10 -74 -9
-97 5 -154 30 -122 51 -136 268 -175 507 -91 963 54 1334 425 135 134 199 267
226 470 48 365 -133 875 -513 1444 -184 275 -352 489 -642 816 -301 338 -411
442 -536 505 -92 47 -210 72 -295 63z"/>
<path style = "fill : #FFFFFF" d="M9826 5265 c-61 -21 -70 -36 -74 -120 -3 -60 0 -82 17 -118 77 -158
375 -319 765 -412 321 -77 492 -75 821 10 389 100 652 244 732 399 22 43 25
59 21 124 -3 63 -7 77 -27 93 -47 39 -74 38 -357 -1 -148 -21 -332 -45 -410
-54 -187 -21 -580 -22 -764 -1 -118 14 -590 77 -660 89 -14 2 -43 -2 -64 -9z"/>
<path d="M17306 1775 c-179 -50 -350 -209 -408 -382 -111 -327 58 -673 382
-785 88 -31 286 -33 370 -4 157 53 297 171 363 306 97 196 85 437 -29 609 -81
122 -216 220 -350 255 -76 20 -258 20 -328 1z m293 -90 c175 -46 331 -204 370
-375 6 -25 11 -81 11 -126 0 -135 -42 -242 -135 -342 -65 -70 -128 -113 -211
-143 -84 -31 -244 -31 -328 0 -301 109 -434 452 -284 734 60 113 193 218 317
253 63 17 195 17 260 -1z"/>
<path style = "fill : #FFFFFF" d="M17220 1196 l0 -336 65 0 65 0 0 131 0 131 88 -7 c145 -11 173 -38
182 -168 l5 -82 60 -3 60 -3 -5 93 c-6 110 -37 176 -91 198 l-31 13 42 20
c133 63 109 283 -35 327 -22 6 -122 14 -222 17 l-183 6 0 -337z m349 220 c38
-20 51 -44 51 -93 0 -81 -53 -113 -185 -113 l-85 0 0 116 0 117 94 -6 c56 -3
106 -12 125 -21z"/>
</g>
</svg>
