<svg id="svg" version="1.1" width="400" height="400" viewBox="0 0 400 400" xmlns="http://www.w3.org/2000/svg" xmlns:xlink="http://www.w3.org/1999/xlink" ><g id="svgg"><path style = "fill :#FFFFFF;" id="path0" d="M61.302 26.926 C 34.355 30.376,18.667 59.811,30.700 84.342 C 45.279 114.063,87.696 114.156,102.557 84.500 C 116.895 55.887,93.216 22.841,61.302 26.926 M195.400 26.821 C 164.238 30.336,149.086 67.260,168.735 91.800 C 186.977 114.583,223.161 110.566,235.981 84.335 C 249.878 55.900,226.857 23.273,195.400 26.821 M328.800 26.821 C 301.305 29.912,285.037 59.778,297.406 84.455 C 312.293 114.153,354.710 114.087,369.300 84.342 C 383.220 55.964,360.214 23.289,328.800 26.821 M60.800 160.329 C 28.264 165.294,15.086 205.097,38.294 228.306 C 61.057 251.068,100.069 239.006,106.087 207.345 C 111.189 180.507,87.786 156.211,60.800 160.329 M193.800 160.392 C 165.110 164.831,150.552 197.664,166.483 222.000 C 183.281 247.659,221.951 245.482,235.770 218.100 C 250.434 189.042,225.978 155.414,193.800 160.392 M328.208 160.218 C 298.935 164.004,283.602 197.360,299.808 222.000 C 317.637 249.109,358.732 244.817,370.671 214.600 C 381.786 186.469,358.254 156.331,328.208 160.218 M63.800 293.331 C 30.149 296.556,14.488 335.608,36.963 360.253 C 60.670 386.249,103.780 371.411,106.636 336.271 C 108.591 312.220,87.484 291.061,63.800 293.331 M197.100 293.315 C 196.770 293.362,195.654 293.498,194.621 293.618 C 173.025 296.126,157.123 317.147,160.310 338.974 C 164.184 365.495,192.045 380.789,216.552 369.847 C 245.175 357.067,248.284 317.096,222.000 299.808 C 214.957 295.175,204.065 292.335,197.100 293.315 M329.300 293.420 C 296.083 297.037,281.336 337.095,304.395 361.073 C 325.208 382.717,361.846 374.556,371.290 346.173 C 380.498 318.499,358.044 290.291,329.300 293.420 " stroke="none" fill="#040404" fill-rule="evenodd"></path><path id="path1" d="" stroke="none" fill="#080404" fill-rule="evenodd"></path><path id="path2" d="" stroke="none" fill="#080404" fill-rule="evenodd"></path><path id="path3" d="" stroke="none" fill="#080404" fill-rule="evenodd"></path><path id="path4" d="" stroke="none" fill="#080404" fill-rule="evenodd"></path></g></svg>